<?xml version="1.0" encoding="UTF-8"?>
<!DOCTYPE svg PUBLIC "-//W3C//DTD SVG 1.1//EN" "http://www.w3.org/Graphics/SVG/1.1/DTD/svg11.dtd">
<svg xmlns="http://www.w3.org/2000/svg" version="1.1" width="500px" height="500px" style="shape-rendering:geometricPrecision; text-rendering:geometricPrecision; image-rendering:optimizeQuality; fill-rule:evenodd; clip-rule:evenodd" xmlns:xlink="http://www.w3.org/1999/xlink">
<g><path style="opacity:0.924" fill="#408d52" d="M 194.5,77.5 C 208.766,78.9847 222.432,82.8181 235.5,89C 251.259,86.7327 264.426,91.566 275,103.5C 278.928,109.03 282.595,114.696 286,120.5C 291.262,116.901 296.762,113.735 302.5,111C 311.575,109.134 318.742,111.967 324,119.5C 326.04,123.964 327.874,128.464 329.5,133C 350.097,137.762 361.764,150.595 364.5,171.5C 381.185,173.031 387.685,182.031 384,198.5C 381.072,211.067 375.905,222.567 368.5,233C 379.024,241.535 385.858,252.369 389,265.5C 390.401,281.478 391.068,297.478 391,313.5C 389.9,317.222 387.734,320.056 384.5,322C 374.832,323.501 365.499,326.168 356.5,330C 329.681,336.102 305.015,331.435 282.5,316C 281.5,315.333 280.5,315.333 279.5,316C 273.607,325.741 271.607,336.241 273.5,347.5C 291.183,351.017 301.683,361.684 305,379.5C 306.285,399.752 296.785,410.585 276.5,412C 271.167,412.333 265.833,412.667 260.5,413C 255.338,417.481 249.338,420.147 242.5,421C 232.048,422.01 221.714,421.344 211.5,419C 206.123,417.398 201.956,414.231 199,409.5C 198.667,403.5 198.333,397.5 198,391.5C 192.622,367.686 202.122,354.019 226.5,350.5C 226.666,341.827 226.5,333.16 226,324.5C 225.57,317.063 221.736,313.563 214.5,314C 205.29,319.055 195.623,323.055 185.5,326C 170.803,326.158 156.137,326.158 141.5,326C 134.993,322.968 131.993,317.802 132.5,310.5C 133.379,307.188 133.546,303.855 133,300.5C 124.447,294.953 116.78,288.286 110,280.5C 106.474,269.908 109.308,261.241 118.5,254.5C 117.861,235.275 125.528,220.442 141.5,210C 148.226,207.12 155.226,205.12 162.5,204C 162.957,203.586 163.291,203.086 163.5,202.5C 151.076,186.893 148.576,169.893 156,151.5C 157.644,148.689 159.81,146.356 162.5,144.5C 162.143,128.213 168.143,114.879 180.5,104.5C 182.017,97.746 183.851,91.0793 186,84.5C 188.196,81.2675 191.029,78.9341 194.5,77.5 Z"/></g>
<g><path style="opacity:1" fill="#f8c349" d="M 215.5,95.5 C 214.167,95.5 212.833,95.5 211.5,95.5C 207.509,93.3941 203.176,92.0608 198.5,91.5C 197.619,96.1236 196.952,100.79 196.5,105.5C 197.018,109.916 197.518,114.249 198,118.5C 195.441,115.651 192.274,114.817 188.5,116C 186.963,117.707 185.296,119.207 183.5,120.5C 183.351,119.448 183.517,118.448 184,117.5C 185.5,116.667 186.667,115.5 187.5,114C 190.553,113.821 193.553,113.321 196.5,112.5C 195.167,105.5 195.167,98.5 196.5,91.5C 200.987,90.621 205.32,90.621 209.5,91.5C 211.813,92.5005 213.813,93.8338 215.5,95.5 Z"/></g>
<g><path style="opacity:1" fill="#4a8859" d="M 268.5,118.5 C 262.932,108.939 254.598,103.939 243.5,103.5C 244.312,102.007 245.645,101.34 247.5,101.5C 250.687,101.667 253.521,102.667 256,104.5C 256.333,104.167 256.667,103.833 257,103.5C 258.42,105.422 260.253,106.755 262.5,107.5C 263.012,110.351 264.679,111.684 267.5,111.5C 267.674,113.861 268.007,116.194 268.5,118.5 Z"/></g>
<g><path style="opacity:1" fill="#f0cb56" d="M 211.5,95.5 C 208.085,95.7388 204.919,95.0722 202,93.5C 200.674,93.7549 199.674,94.4216 199,95.5C 198.23,104.584 198.73,113.584 200.5,122.5C 198.184,120.94 195.684,119.606 193,118.5C 190.337,118.826 187.837,119.659 185.5,121C 184.748,121.671 184.414,122.504 184.5,123.5C 183.167,124.833 181.833,126.167 180.5,127.5C 181.227,125.046 182.227,122.713 183.5,120.5C 185.296,119.207 186.963,117.707 188.5,116C 192.274,114.817 195.441,115.651 198,118.5C 197.518,114.249 197.018,109.916 196.5,105.5C 196.952,100.79 197.619,96.1236 198.5,91.5C 203.176,92.0608 207.509,93.3941 211.5,95.5 Z"/></g>
<g><path style="opacity:1" fill="#f0ce5e" d="M 211.5,95.5 C 212.833,95.5 214.167,95.5 215.5,95.5C 222.361,97.2641 228.361,100.597 233.5,105.5C 233.452,108.635 231.785,110.302 228.5,110.5C 231.093,112.071 232.093,114.404 231.5,117.5C 234.144,117.84 236.477,117.173 238.5,115.5C 239.429,116.689 239.762,118.022 239.5,119.5C 238.5,119.5 237.5,119.5 236.5,119.5C 236.5,121.5 236.5,123.5 236.5,125.5C 237.552,125.351 238.552,125.517 239.5,126C 231.729,127.264 231.729,128.931 239.5,131C 244.864,131.829 250.198,131.663 255.5,130.5C 252.914,129.52 250.247,129.187 247.5,129.5C 247.5,128.5 247.5,127.5 247.5,126.5C 249.819,127.167 252.153,127.334 254.5,127C 254.957,126.586 255.291,126.086 255.5,125.5C 254.5,124.833 253.5,124.167 252.5,123.5C 253.934,122.77 255.1,121.77 256,120.5C 256.841,123.862 258.841,126.195 262,127.5C 262.5,127.167 263,126.833 263.5,126.5C 261.829,124.49 261.162,122.157 261.5,119.5C 262.5,119.5 263.5,119.5 264.5,119.5C 264.343,120.873 264.51,122.207 265,123.5C 265.694,124.818 266.527,125.651 267.5,126C 266.783,127.531 265.783,128.864 264.5,130C 264.975,131.763 265.642,133.43 266.5,135C 262.492,136.113 258.659,137.613 255,139.5C 253.812,138.437 253.312,137.103 253.5,135.5C 252.167,135.5 250.833,135.5 249.5,135.5C 249.492,139.195 250.826,142.195 253.5,144.5C 252.855,147.228 252.021,149.895 251,152.5C 250,151.167 249,151.167 248,152.5C 247.503,154.81 247.337,157.143 247.5,159.5C 246.167,159.5 244.833,159.5 243.5,159.5C 243.089,163.221 242.422,166.888 241.5,170.5C 241.884,172.665 241.217,174.332 239.5,175.5C 238.67,181.138 238.17,186.804 238,192.5C 237.329,191.748 236.496,191.414 235.5,191.5C 232.167,188.833 228.833,186.167 225.5,183.5C 221.805,179.469 217.471,176.135 212.5,173.5C 211.066,172.412 210.066,171.078 209.5,169.5C 210.391,170.11 211.391,170.443 212.5,170.5C 223.297,175.849 232.13,173.515 239,163.5C 241.143,157.282 240.976,151.282 238.5,145.5C 236.375,141.112 233.041,138.112 228.5,136.5C 228.389,135.883 228.056,135.383 227.5,135C 218.813,133.57 211.147,135.57 204.5,141C 203.289,142.113 203.289,143.28 204.5,144.5C 201.042,149.24 200.709,154.24 203.5,159.5C 203.833,159.5 204.167,159.5 204.5,159.5C 204.957,162.406 205.957,165.072 207.5,167.5C 205.895,166.031 205.395,166.365 206,168.5C 211.188,175.53 217.688,180.863 225.5,184.5C 227.893,189.343 231.226,193.343 235.5,196.5C 236.6,197.605 237.267,198.938 237.5,200.5C 239.213,205.668 241.38,210.668 244,215.5C 244.167,216.833 244.333,218.167 244.5,219.5C 243.471,222.514 242.471,225.514 241.5,228.5C 239.766,232.3 237.766,235.966 235.5,239.5C 232.58,238.558 229.914,237.224 227.5,235.5C 220.061,228.607 212.394,221.941 204.5,215.5C 207.524,213.987 210.191,211.987 212.5,209.5C 212.833,208.5 213.5,207.833 214.5,207.5C 220.136,199.209 219.802,191.209 213.5,183.5C 212.395,182.4 211.062,181.733 209.5,181.5C 208.025,179.59 206.025,178.424 203.5,178C 200.633,177.199 197.966,177.366 195.5,178.5C 188.301,179.863 183.801,184.197 182,191.5C 181.502,194.817 181.335,198.15 181.5,201.5C 180.833,201.5 180.5,201.167 180.5,200.5C 179.767,198.037 178.767,195.703 177.5,193.5C 178.937,189.149 180.437,184.816 182,180.5C 183.587,179.273 184.921,179.606 186,181.5C 186.309,180.234 186.809,179.067 187.5,178C 192.414,178.047 196.081,176.047 198.5,172C 197.833,170.333 197.167,168.667 196.5,167C 197.572,162.876 197.738,158.71 197,154.5C 194.785,153.18 193.285,153.847 192.5,156.5C 193.378,162.076 193.378,167.743 192.5,173.5C 191.796,170.296 191.13,167.129 190.5,164C 191.935,161.733 191.602,159.733 189.5,158C 193.362,152.827 192.862,147.994 188,143.5C 187.667,139.167 187.333,134.833 187,130.5C 185.587,128.348 184.754,126.014 184.5,123.5C 184.414,122.504 184.748,121.671 185.5,121C 187.837,119.659 190.337,118.826 193,118.5C 195.684,119.606 198.184,120.94 200.5,122.5C 198.73,113.584 198.23,104.584 199,95.5C 199.674,94.4216 200.674,93.7549 202,93.5C 204.919,95.0722 208.085,95.7388 211.5,95.5 Z"/></g>
</svg>