<?xml version="1.0" encoding="UTF-8"?>
<!DOCTYPE svg PUBLIC "-//W3C//DTD SVG 1.1//EN" "http://www.w3.org/Graphics/SVG/1.1/DTD/svg11.dtd">
<svg xmlns="http://www.w3.org/2000/svg" version="1.1" width="500px" height="500px" style="shape-rendering:geometricPrecision; text-rendering:geometricPrecision; image-rendering:optimizeQuality; fill-rule:evenodd; clip-rule:evenodd" xmlns:xlink="http://www.w3.org/1999/xlink">
<g><path style="opacity:0.924" fill="#fcfdfc" d="M 194.5,77.5 C 208.766,78.9847 222.432,82.8181 235.5,89C 251.259,86.7327 264.426,91.566 275,103.5C 278.928,109.03 282.595,114.696 286,120.5C 291.262,116.901 296.762,113.735 302.5,111C 311.575,109.134 318.742,111.967 324,119.5C 326.04,123.964 327.874,128.464 329.5,133C 350.097,137.762 361.764,150.595 364.5,171.5C 381.185,173.031 387.685,182.031 384,198.5C 381.072,211.067 375.905,222.567 368.5,233C 379.024,241.535 385.858,252.369 389,265.5C 390.401,281.478 391.068,297.478 391,313.5C 389.9,317.222 387.734,320.056 384.5,322C 374.832,323.501 365.499,326.168 356.5,330C 329.681,336.102 305.015,331.435 282.5,316C 281.5,315.333 280.5,315.333 279.5,316C 273.607,325.741 271.607,336.241 273.5,347.5C 291.183,351.017 301.683,361.684 305,379.5C 306.285,399.752 296.785,410.585 276.5,412C 271.167,412.333 265.833,412.667 260.5,413C 255.338,417.481 249.338,420.147 242.5,421C 232.048,422.01 221.714,421.344 211.5,419C 206.123,417.398 201.956,414.231 199,409.5C 198.667,403.5 198.333,397.5 198,391.5C 192.622,367.686 202.122,354.019 226.5,350.5C 226.666,341.827 226.5,333.16 226,324.5C 225.57,317.063 221.736,313.563 214.5,314C 205.29,319.055 195.623,323.055 185.5,326C 170.803,326.158 156.137,326.158 141.5,326C 134.993,322.968 131.993,317.802 132.5,310.5C 133.379,307.188 133.546,303.855 133,300.5C 124.447,294.953 116.78,288.286 110,280.5C 106.474,269.908 109.308,261.241 118.5,254.5C 117.861,235.275 125.528,220.442 141.5,210C 148.226,207.12 155.226,205.12 162.5,204C 162.957,203.586 163.291,203.086 163.5,202.5C 151.076,186.893 148.576,169.893 156,151.5C 157.644,148.689 159.81,146.356 162.5,144.5C 162.143,128.213 168.143,114.879 180.5,104.5C 182.017,97.746 183.851,91.0793 186,84.5C 188.196,81.2675 191.029,78.9341 194.5,77.5 Z"/></g>
<g><path style="opacity:1" fill="#e5f8eb" d="M 215.5,95.5 C 214.167,95.5 212.833,95.5 211.5,95.5C 207.509,93.3941 203.176,92.0608 198.5,91.5C 197.619,96.1236 196.952,100.79 196.5,105.5C 197.018,109.916 197.518,114.249 198,118.5C 195.441,115.651 192.274,114.817 188.5,116C 186.963,117.707 185.296,119.207 183.5,120.5C 183.351,119.448 183.517,118.448 184,117.5C 185.5,116.667 186.667,115.5 187.5,114C 190.553,113.821 193.553,113.321 196.5,112.5C 195.167,105.5 195.167,98.5 196.5,91.5C 200.987,90.621 205.32,90.621 209.5,91.5C 211.813,92.5005 213.813,93.8338 215.5,95.5 Z"/></g>
<g><path style="opacity:1" fill="#e6f6e8" d="M 268.5,118.5 C 262.932,108.939 254.598,103.939 243.5,103.5C 244.312,102.007 245.645,101.34 247.5,101.5C 250.687,101.667 253.521,102.667 256,104.5C 256.333,104.167 256.667,103.833 257,103.5C 258.42,105.422 260.253,106.755 262.5,107.5C 263.012,110.351 264.679,111.684 267.5,111.5C 267.674,113.861 268.007,116.194 268.5,118.5 Z"/></g>
<g><path style="opacity:1" fill="#558f64" d="M 211.5,95.5 C 208.085,95.7388 204.919,95.0722 202,93.5C 200.674,93.7549 199.674,94.4216 199,95.5C 198.23,104.584 198.73,113.584 200.5,122.5C 198.184,120.94 195.684,119.606 193,118.5C 190.337,118.826 187.837,119.659 185.5,121C 184.748,121.671 184.414,122.504 184.5,123.5C 183.167,124.833 181.833,126.167 180.5,127.5C 181.227,125.046 182.227,122.713 183.5,120.5C 185.296,119.207 186.963,117.707 188.5,116C 192.274,114.817 195.441,115.651 198,118.5C 197.518,114.249 197.018,109.916 196.5,105.5C 196.952,100.79 197.619,96.1236 198.5,91.5C 203.176,92.0608 207.509,93.3941 211.5,95.5 Z"/></g>
<g><path style="opacity:1" fill="#408d52" d="M 211.5,95.5 C 212.833,95.5 214.167,95.5 215.5,95.5C 222.361,97.2641 228.361,100.597 233.5,105.5C 233.452,108.635 231.785,110.302 228.5,110.5C 231.093,112.071 232.093,114.404 231.5,117.5C 234.144,117.84 236.477,117.173 238.5,115.5C 239.429,116.689 239.762,118.022 239.5,119.5C 238.5,119.5 237.5,119.5 236.5,119.5C 236.5,121.5 236.5,123.5 236.5,125.5C 237.552,125.351 238.552,125.517 239.5,126C 231.729,127.264 231.729,128.931 239.5,131C 244.864,131.829 250.198,131.663 255.5,130.5C 252.914,129.52 250.247,129.187 247.5,129.5C 247.5,128.5 247.5,127.5 247.5,126.5C 249.819,127.167 252.153,127.334 254.5,127C 254.957,126.586 255.291,126.086 255.5,125.5C 254.5,124.833 253.5,124.167 252.5,123.5C 253.934,122.77 255.1,121.77 256,120.5C 256.841,123.862 258.841,126.195 262,127.5C 262.5,127.167 263,126.833 263.5,126.5C 261.829,124.49 261.162,122.157 261.5,119.5C 262.5,119.5 263.5,119.5 264.5,119.5C 264.343,120.873 264.51,122.207 265,123.5C 265.694,124.818 266.527,125.651 267.5,126C 266.783,127.531 265.783,128.864 264.5,130C 264.975,131.763 265.642,133.43 266.5,135C 262.492,136.113 258.659,137.613 255,139.5C 253.812,138.437 253.312,137.103 253.5,135.5C 252.167,135.5 250.833,135.5 249.5,135.5C 249.492,139.195 250.826,142.195 253.5,144.5C 252.855,147.228 252.021,149.895 251,152.5C 250,151.167 249,151.167 248,152.5C 247.503,154.81 247.337,157.143 247.5,159.5C 246.167,159.5 244.833,159.5 243.5,159.5C 243.089,163.221 242.422,166.888 241.5,170.5C 241.884,172.665 241.217,174.332 239.5,175.5C 238.67,181.138 238.17,186.804 238,192.5C 237.329,191.748 236.496,191.414 235.5,191.5C 232.167,188.833 228.833,186.167 225.5,183.5C 221.805,179.469 217.471,176.135 212.5,173.5C 211.066,172.412 210.066,171.078 209.5,169.5C 210.391,170.11 211.391,170.443 212.5,170.5C 223.297,175.849 232.13,173.515 239,163.5C 241.143,157.282 240.976,151.282 238.5,145.5C 236.375,141.112 233.041,138.112 228.5,136.5C 228.389,135.883 228.056,135.383 227.5,135C 218.813,133.57 211.147,135.57 204.5,141C 203.289,142.113 203.289,143.28 204.5,144.5C 201.042,149.24 200.709,154.24 203.5,159.5C 203.833,159.5 204.167,159.5 204.5,159.5C 204.957,162.406 205.957,165.072 207.5,167.5C 205.895,166.031 205.395,166.365 206,168.5C 211.188,175.53 217.688,180.863 225.5,184.5C 227.893,189.343 231.226,193.343 235.5,196.5C 236.6,197.605 237.267,198.938 237.5,200.5C 239.213,205.668 241.38,210.668 244,215.5C 244.167,216.833 244.333,218.167 244.5,219.5C 243.471,222.514 242.471,225.514 241.5,228.5C 239.766,232.3 237.766,235.966 235.5,239.5C 232.58,238.558 229.914,237.224 227.5,235.5C 220.061,228.607 212.394,221.941 204.5,215.5C 207.524,213.987 210.191,211.987 212.5,209.5C 212.833,208.5 213.5,207.833 214.5,207.5C 220.136,199.209 219.802,191.209 213.5,183.5C 212.395,182.4 211.062,181.733 209.5,181.5C 208.025,179.59 206.025,178.424 203.5,178C 200.633,177.199 197.966,177.366 195.5,178.5C 188.301,179.863 183.801,184.197 182,191.5C 181.502,194.817 181.335,198.15 181.5,201.5C 180.833,201.5 180.5,201.167 180.5,200.5C 179.767,198.037 178.767,195.703 177.5,193.5C 178.937,189.149 180.437,184.816 182,180.5C 183.587,179.273 184.921,179.606 186,181.5C 186.309,180.234 186.809,179.067 187.5,178C 192.414,178.047 196.081,176.047 198.5,172C 197.833,170.333 197.167,168.667 196.5,167C 197.572,162.876 197.738,158.71 197,154.5C 194.785,153.18 193.285,153.847 192.5,156.5C 193.378,162.076 193.378,167.743 192.5,173.5C 191.796,170.296 191.13,167.129 190.5,164C 191.935,161.733 191.602,159.733 189.5,158C 193.362,152.827 192.862,147.994 188,143.5C 187.667,139.167 187.333,134.833 187,130.5C 185.587,128.348 184.754,126.014 184.5,123.5C 184.414,122.504 184.748,121.671 185.5,121C 187.837,119.659 190.337,118.826 193,118.5C 195.684,119.606 198.184,120.94 200.5,122.5C 198.73,113.584 198.23,104.584 199,95.5C 199.674,94.4216 200.674,93.7549 202,93.5C 204.919,95.0722 208.085,95.7388 211.5,95.5 Z"/></g>
<g><path style="opacity:1" fill="#408c52" d="M 243.5,103.5 C 254.598,103.939 262.932,108.939 268.5,118.5C 270.757,122.605 272.424,126.939 273.5,131.5C 273.299,139.228 272.465,146.895 271,154.5C 270.527,156.779 269.527,158.779 268,160.5C 267.525,168.855 267.858,177.189 269,185.5C 270.94,189.896 271.94,194.563 272,199.5C 272.71,200.973 273.876,201.64 275.5,201.5C 274.811,194.879 274.811,188.212 275.5,181.5C 274.5,181.5 273.5,181.5 272.5,181.5C 272.334,174.159 272.5,166.826 273,159.5C 274,159.5 275,159.5 276,159.5C 276.483,158.552 276.649,157.552 276.5,156.5C 277.995,156.415 278.995,157.081 279.5,158.5C 277.633,162.567 277.466,166.567 279,170.5C 279.498,167.183 279.665,163.85 279.5,160.5C 281.144,160.714 282.644,160.38 284,159.5C 284.131,164.682 285.131,169.682 287,174.5C 287.483,173.552 287.649,172.552 287.5,171.5C 290.167,171.5 292.833,171.5 295.5,171.5C 295.643,173.262 295.309,174.929 294.5,176.5C 295.616,176.402 296.616,176.902 297.5,178C 297.05,179.285 296.383,180.452 295.5,181.5C 296.969,183.192 297.635,185.192 297.5,187.5C 296.947,190.817 296.614,194.15 296.5,197.5C 295.5,197.5 294.5,197.5 293.5,197.5C 293.121,193.418 294.121,189.751 296.5,186.5C 295.214,184.374 294.381,182.041 294,179.5C 292.247,181.989 292.08,184.656 293.5,187.5C 291.984,192.42 290.651,197.42 289.5,202.5C 287.403,206.235 284.737,209.568 281.5,212.5C 279.939,205.716 280.606,199.216 283.5,193C 282.352,191.274 281.185,191.441 280,193.5C 276.274,203.081 274.107,213.081 273.5,223.5C 272.076,225.515 271.41,227.848 271.5,230.5C 269.902,232.698 268.569,235.031 267.5,237.5C 266.272,238.306 265.272,239.306 264.5,240.5C 262.362,234.891 259.696,229.558 256.5,224.5C 252.44,213.005 247.773,201.671 242.5,190.5C 241.418,180.739 243.085,171.573 247.5,163C 247.167,162.167 246.833,161.333 246.5,160.5C 244.596,163.844 242.929,167.178 241.5,170.5C 242.422,166.888 243.089,163.221 243.5,159.5C 244.833,159.5 246.167,159.5 247.5,159.5C 247.337,157.143 247.503,154.81 248,152.5C 249,151.167 250,151.167 251,152.5C 252.021,149.895 252.855,147.228 253.5,144.5C 250.826,142.195 249.492,139.195 249.5,135.5C 250.833,135.5 252.167,135.5 253.5,135.5C 253.312,137.103 253.812,138.437 255,139.5C 258.659,137.613 262.492,136.113 266.5,135C 265.642,133.43 264.975,131.763 264.5,130C 265.783,128.864 266.783,127.531 267.5,126C 266.527,125.651 265.694,124.818 265,123.5C 264.51,122.207 264.343,120.873 264.5,119.5C 263.5,119.5 262.5,119.5 261.5,119.5C 261.162,122.157 261.829,124.49 263.5,126.5C 263,126.833 262.5,127.167 262,127.5C 258.841,126.195 256.841,123.862 256,120.5C 255.1,121.77 253.934,122.77 252.5,123.5C 253.5,124.167 254.5,124.833 255.5,125.5C 255.291,126.086 254.957,126.586 254.5,127C 252.153,127.334 249.819,127.167 247.5,126.5C 247.5,127.5 247.5,128.5 247.5,129.5C 250.247,129.187 252.914,129.52 255.5,130.5C 250.198,131.663 244.864,131.829 239.5,131C 231.729,128.931 231.729,127.264 239.5,126C 238.552,125.517 237.552,125.351 236.5,125.5C 236.5,123.5 236.5,121.5 236.5,119.5C 237.5,119.5 238.5,119.5 239.5,119.5C 239.762,118.022 239.429,116.689 238.5,115.5C 236.477,117.173 234.144,117.84 231.5,117.5C 232.093,114.404 231.093,112.071 228.5,110.5C 231.785,110.302 233.452,108.635 233.5,105.5C 235.148,106.81 236.814,108.143 238.5,109.5C 239.709,107.059 241.376,105.059 243.5,103.5 Z"/></g>
<g><path style="opacity:1" fill="#60946b" d="M 179.5,128.5 C 179.5,135.167 179.5,141.833 179.5,148.5C 178.732,147.737 178.232,146.737 178,145.5C 177.502,142.183 177.335,138.85 177.5,135.5C 177.927,132.99 178.593,130.657 179.5,128.5 Z"/></g>
<g><path style="opacity:1" fill="#e3ce61" d="M 228.5,136.5 C 233.041,138.112 236.375,141.112 238.5,145.5C 237.5,144.833 236.5,144.167 235.5,143.5C 231.751,140.063 227.251,138.063 222,137.5C 218.988,138.869 215.821,139.536 212.5,139.5C 213.453,137.39 215.119,136.223 217.5,136C 221.221,135.322 224.888,135.489 228.5,136.5 Z"/></g>
<g><path style="opacity:1" fill="#d4c964" d="M 212.5,139.5 C 207.079,145.016 204.413,151.683 204.5,159.5C 204.167,159.5 203.833,159.5 203.5,159.5C 202.895,153.767 204.062,148.434 207,143.5C 208.451,141.536 210.284,140.203 212.5,139.5 Z"/></g>
<g><path style="opacity:1" fill="#f8c349" d="M 235.5,143.5 C 236.457,147.094 237.124,150.76 237.5,154.5C 237.614,157.378 236.948,160.044 235.5,162.5C 236.815,163.895 236.481,164.895 234.5,165.5C 233.702,163.922 233.202,162.256 233,160.5C 232.333,161.833 231.667,161.833 231,160.5C 230.748,162.378 230.081,164.378 229,166.5C 228.329,167.252 227.496,167.586 226.5,167.5C 225.549,166.081 225.216,164.415 225.5,162.5C 226.993,161.688 227.66,160.355 227.5,158.5C 227.48,157.274 227.147,156.274 226.5,155.5C 228.033,151.871 229.033,148.038 229.5,144C 228.902,142.699 227.902,141.865 226.5,141.5C 223.048,143.503 219.715,145.837 216.5,148.5C 215.325,147.145 214.325,147.312 213.5,149C 214.833,151.333 216.167,153.667 217.5,156C 215.845,157.444 215.178,159.278 215.5,161.5C 207.829,162.763 208.163,164.263 216.5,166C 217.071,167.205 217.738,168.372 218.5,169.5C 220.991,168.706 223.324,169.039 225.5,170.5C 221.374,170.843 217.041,170.843 212.5,170.5C 211.391,170.443 210.391,170.11 209.5,169.5C 209.167,168.5 208.5,167.833 207.5,167.5C 205.957,165.072 204.957,162.406 204.5,159.5C 204.413,151.683 207.079,145.016 212.5,139.5C 215.821,139.536 218.988,138.869 222,137.5C 227.251,138.063 231.751,140.063 235.5,143.5 Z"/></g>
<g><path style="opacity:1" fill="#5e936b" d="M 312.5,130.5 C 316.108,138.098 317.108,146.098 315.5,154.5C 314.831,146.59 313.831,138.59 312.5,130.5 Z"/></g>
<g><path style="opacity:1" fill="#518d45" d="M 228.5,136.5 C 224.888,135.489 221.221,135.322 217.5,136C 215.119,136.223 213.453,137.39 212.5,139.5C 210.284,140.203 208.451,141.536 207,143.5C 204.062,148.434 202.895,153.767 203.5,159.5C 200.709,154.24 201.042,149.24 204.5,144.5C 203.289,143.28 203.289,142.113 204.5,141C 211.147,135.57 218.813,133.57 227.5,135C 228.056,135.383 228.389,135.883 228.5,136.5 Z"/></g>
<g><path style="opacity:1" fill="#418c54" d="M 184.5,123.5 C 184.754,126.014 185.587,128.348 187,130.5C 187.333,134.833 187.667,139.167 188,143.5C 192.862,147.994 193.362,152.827 189.5,158C 191.602,159.733 191.935,161.733 190.5,164C 191.13,167.129 191.796,170.296 192.5,173.5C 193.378,167.743 193.378,162.076 192.5,156.5C 193.285,153.847 194.785,153.18 197,154.5C 197.738,158.71 197.572,162.876 196.5,167C 197.167,168.667 197.833,170.333 198.5,172C 196.081,176.047 192.414,178.047 187.5,178C 186.809,179.067 186.309,180.234 186,181.5C 184.921,179.606 183.587,179.273 182,180.5C 180.437,184.816 178.937,189.149 177.5,193.5C 178.767,195.703 179.767,198.037 180.5,200.5C 175.945,195.942 172.612,190.608 170.5,184.5C 168.052,176.588 167.885,168.588 170,160.5C 173.495,156.837 177.329,156.503 181.5,159.5C 182.416,159.457 183.083,159.124 183.5,158.5C 181.625,155.412 180.292,152.078 179.5,148.5C 179.5,141.833 179.5,135.167 179.5,128.5C 179.5,127.833 179.833,127.5 180.5,127.5C 181.833,126.167 183.167,124.833 184.5,123.5 Z"/></g>
<g><path style="opacity:1" fill="#448656" d="M 311.5,128.5 C 308.83,127.32 306.164,127.487 303.5,129C 297.176,131.983 290.843,134.983 284.5,138C 283.897,139.825 283.23,141.659 282.5,143.5C 281.604,142.494 280.938,142.494 280.5,143.5C 281.002,144.716 281.335,145.883 281.5,147C 277.948,149.61 276.282,152.776 276.5,156.5C 276.649,157.552 276.483,158.552 276,159.5C 275,159.5 274,159.5 273,159.5C 272.5,166.826 272.334,174.159 272.5,181.5C 273.5,181.5 274.5,181.5 275.5,181.5C 274.811,188.212 274.811,194.879 275.5,201.5C 273.876,201.64 272.71,200.973 272,199.5C 271.94,194.563 270.94,189.896 269,185.5C 267.858,177.189 267.525,168.855 268,160.5C 269.527,158.779 270.527,156.779 271,154.5C 272.465,146.895 273.299,139.228 273.5,131.5C 275.051,135.9 275.884,140.566 276,145.5C 278.984,140.904 282.817,137.07 287.5,134C 294.773,131.362 301.773,128.195 308.5,124.5C 310.468,125.1 311.468,126.433 311.5,128.5 Z"/></g>
<g><path style="opacity:1" fill="#e2f7e8" d="M 177.5,135.5 C 177.335,138.85 177.502,142.183 178,145.5C 178.232,146.737 178.732,147.737 179.5,148.5C 180.292,152.078 181.625,155.412 183.5,158.5C 175.159,154.26 169.159,156.26 165.5,164.5C 165.014,161.245 166.014,158.578 168.5,156.5C 171.761,155.289 175.095,154.289 178.5,153.5C 176.416,147.455 176.083,141.455 177.5,135.5 Z"/></g>
<g><path style="opacity:1" fill="#fcf3c9" d="M 226.5,155.5 C 227.147,156.274 227.48,157.274 227.5,158.5C 227.66,160.355 226.993,161.688 225.5,162.5C 222.13,165.386 219.464,164.719 217.5,160.5C 218.325,159.614 219.325,159.281 220.5,159.5C 219.748,156.91 218.748,154.41 217.5,152C 218.573,147.752 221.239,145.585 225.5,145.5C 225.421,146.93 225.754,148.264 226.5,149.5C 223.933,151.765 223.933,153.765 226.5,155.5 Z"/></g>
<g><path style="opacity:1" fill="#f0cb56" d="M 235.5,143.5 C 236.5,144.167 237.5,144.833 238.5,145.5C 240.976,151.282 241.143,157.282 239,163.5C 232.13,173.515 223.297,175.849 212.5,170.5C 217.041,170.843 221.374,170.843 225.5,170.5C 226.239,170.631 226.906,170.464 227.5,170C 226.748,169.329 226.414,168.496 226.5,167.5C 227.496,167.586 228.329,167.252 229,166.5C 230.081,164.378 230.748,162.378 231,160.5C 231.667,161.833 232.333,161.833 233,160.5C 233.202,162.256 233.702,163.922 234.5,165.5C 236.481,164.895 236.815,163.895 235.5,162.5C 236.948,160.044 237.614,157.378 237.5,154.5C 237.124,150.76 236.457,147.094 235.5,143.5 Z"/></g>
<g><path style="opacity:1" fill="#508a5f" d="M 183.5,158.5 C 183.083,159.124 182.416,159.457 181.5,159.5C 177.329,156.503 173.495,156.837 170,160.5C 167.885,168.588 168.052,176.588 170.5,184.5C 168.689,182.615 167.522,180.281 167,177.5C 165.925,173.23 165.425,168.897 165.5,164.5C 169.159,156.26 175.159,154.26 183.5,158.5 Z"/></g>
<g><path style="opacity:1" fill="#f8c658" d="M 226.5,155.5 C 223.933,153.765 223.933,151.765 226.5,149.5C 225.754,148.264 225.421,146.93 225.5,145.5C 221.239,145.585 218.573,147.752 217.5,152C 218.748,154.41 219.748,156.91 220.5,159.5C 219.325,159.281 218.325,159.614 217.5,160.5C 219.464,164.719 222.13,165.386 225.5,162.5C 225.216,164.415 225.549,166.081 226.5,167.5C 226.414,168.496 226.748,169.329 227.5,170C 226.906,170.464 226.239,170.631 225.5,170.5C 223.324,169.039 220.991,168.706 218.5,169.5C 217.738,168.372 217.071,167.205 216.5,166C 208.163,164.263 207.829,162.763 215.5,161.5C 215.178,159.278 215.845,157.444 217.5,156C 216.167,153.667 214.833,151.333 213.5,149C 214.325,147.312 215.325,147.145 216.5,148.5C 219.715,145.837 223.048,143.503 226.5,141.5C 227.902,141.865 228.902,142.699 229.5,144C 229.033,148.038 228.033,151.871 226.5,155.5 Z"/></g>
<g><path style="opacity:1" fill="#405d37" d="M 207.5,167.5 C 208.5,167.833 209.167,168.5 209.5,169.5C 210.066,171.078 211.066,172.412 212.5,173.5C 217.471,176.135 221.805,179.469 225.5,183.5C 225.5,183.833 225.5,184.167 225.5,184.5C 217.688,180.863 211.188,175.53 206,168.5C 205.395,166.365 205.895,166.031 207.5,167.5 Z"/></g>
<g><path style="opacity:1" fill="#506137" d="M 242.5,190.5 C 241.674,186.018 241.174,181.351 241,176.5C 240.362,182.87 239.196,188.87 237.5,194.5C 236.833,193.5 236.167,192.5 235.5,191.5C 236.496,191.414 237.329,191.748 238,192.5C 238.17,186.804 238.67,181.138 239.5,175.5C 241.217,174.332 241.884,172.665 241.5,170.5C 242.929,167.178 244.596,163.844 246.5,160.5C 246.833,161.333 247.167,162.167 247.5,163C 243.085,171.573 241.418,180.739 242.5,190.5 Z"/></g>
<g><path style="opacity:1" fill="#dfd466" d="M 195.5,178.5 C 197.966,177.366 200.633,177.199 203.5,178C 206.025,178.424 208.025,179.59 209.5,181.5C 204.953,179.99 200.287,178.99 195.5,178.5 Z"/></g>
<g><path style="opacity:1" fill="#e6f8ea" d="M 368.5,201.5 C 368.5,200.167 368.5,198.833 368.5,197.5C 370.175,194.493 370.841,191.16 370.5,187.5C 361.27,185.174 351.937,184.841 342.5,186.5C 350.427,175.599 350.427,164.765 342.5,154C 337.231,149.408 331.231,147.574 324.5,148.5C 325.184,146.815 326.517,145.815 328.5,145.5C 331.861,146.026 335.028,147.026 338,148.5C 338.945,148.095 339.612,147.428 340,146.5C 341.926,150.26 344.426,153.593 347.5,156.5C 350.104,165.933 350.104,175.267 347.5,184.5C 355.611,184.065 363.611,184.565 371.5,186C 372.26,187.441 372.926,188.941 373.5,190.5C 371.712,194.249 370.046,197.915 368.5,201.5 Z"/></g>
<g><path style="opacity:1" fill="#4a8859" d="M 368.5,197.5 C 368.5,194.833 368.5,192.167 368.5,189.5C 363.955,189.152 359.455,188.485 355,187.5C 352.324,187.76 349.657,188.094 347,188.5C 344.992,188.693 343.492,188.026 342.5,186.5C 351.937,184.841 361.27,185.174 370.5,187.5C 370.841,191.16 370.175,194.493 368.5,197.5 Z"/></g>
<g><path style="opacity:1" fill="#438152" d="M 296.5,197.5 C 296.412,201.589 294.412,204.256 290.5,205.5C 291.96,203.537 293.627,201.704 295.5,200C 293.463,200.483 291.463,201.316 289.5,202.5C 290.651,197.42 291.984,192.42 293.5,187.5C 292.08,184.656 292.247,181.989 294,179.5C 294.381,182.041 295.214,184.374 296.5,186.5C 294.121,189.751 293.121,193.418 293.5,197.5C 294.5,197.5 295.5,197.5 296.5,197.5 Z"/></g>
<g><path style="opacity:1" fill="#5d492f" d="M 225.5,183.5 C 228.833,186.167 232.167,188.833 235.5,191.5C 236.167,192.5 236.833,193.5 237.5,194.5C 236.167,194.5 235.5,195.167 235.5,196.5C 231.226,193.343 227.893,189.343 225.5,184.5C 225.5,184.167 225.5,183.833 225.5,183.5 Z"/></g>
<g><path style="opacity:1" fill="#d9c65f" d="M 195.5,178.5 C 193.909,179.219 192.409,180.219 191,181.5C 188.667,184.5 186.333,187.5 184,190.5C 183.052,196.35 183.552,202.017 185.5,207.5C 183.631,205.966 182.298,203.966 181.5,201.5C 181.335,198.15 181.502,194.817 182,191.5C 183.801,184.197 188.301,179.863 195.5,178.5 Z"/></g>
<g><path style="opacity:1" fill="#e6cf63" d="M 213.5,183.5 C 219.802,191.209 220.136,199.209 214.5,207.5C 215.154,204.506 215.821,201.506 216.5,198.5C 215.34,193.529 214.34,188.529 213.5,183.5 Z"/></g>
<g><path style="opacity:1" fill="#68452e" d="M 242.5,190.5 C 247.773,201.671 252.44,213.005 256.5,224.5C 256.674,226.861 257.007,229.194 257.5,231.5C 256.566,235.604 255.899,239.771 255.5,244C 255.569,245.986 256.235,247.486 257.5,248.5C 256.791,249.404 255.791,249.737 254.5,249.5C 254.666,243.824 254.499,238.157 254,232.5C 253.625,230 252.792,227.667 251.5,225.5C 252.263,224.281 253.263,223.281 254.5,222.5C 252.981,220.444 252.147,218.11 252,215.5C 250.25,211.527 248.75,211.527 247.5,215.5C 249.37,223.603 249.703,231.603 248.5,239.5C 248.895,233.238 248.228,227.238 246.5,221.5C 245.547,215.252 243.713,209.252 241,203.5C 239.961,202.29 238.794,201.29 237.5,200.5C 237.267,198.938 236.6,197.605 235.5,196.5C 235.5,195.167 236.167,194.5 237.5,194.5C 239.196,188.87 240.362,182.87 241,176.5C 241.174,181.351 241.674,186.018 242.5,190.5 Z"/></g>
<g><path style="opacity:1" fill="#567d50" d="M 237.5,200.5 C 238.794,201.29 239.961,202.29 241,203.5C 243.713,209.252 245.547,215.252 246.5,221.5C 245.251,224.09 243.584,226.424 241.5,228.5C 242.471,225.514 243.471,222.514 244.5,219.5C 244.333,218.167 244.167,216.833 244,215.5C 241.38,210.668 239.213,205.668 237.5,200.5 Z"/></g>
<g><path style="opacity:1" fill="#fac64f" d="M 195.5,178.5 C 200.287,178.99 204.953,179.99 209.5,181.5C 211.062,181.733 212.395,182.4 213.5,183.5C 214.34,188.529 215.34,193.529 216.5,198.5C 215.821,201.506 215.154,204.506 214.5,207.5C 213.5,207.833 212.833,208.5 212.5,209.5C 210.745,210.072 209.078,210.906 207.5,212C 202.167,212.667 196.833,212.667 191.5,212C 189.34,210.668 187.34,209.168 185.5,207.5C 183.552,202.017 183.052,196.35 184,190.5C 186.333,187.5 188.667,184.5 191,181.5C 192.409,180.219 193.909,179.219 195.5,178.5 Z"/></g>
<g><path style="opacity:1" fill="#fdf8dc" d="M 195.5,191.5 C 197.026,192.105 198.026,193.271 198.5,195C 199.448,195.483 200.448,195.649 201.5,195.5C 204.662,199.846 203.829,203.179 199,205.5C 196.081,203.853 195.914,202.02 198.5,200C 198.07,198.566 197.236,197.399 196,196.5C 195.506,194.866 195.34,193.199 195.5,191.5 Z"/></g>
<g><path style="opacity:1" fill="#faedb8" d="M 201.5,195.5 C 200.448,195.649 199.448,195.483 198.5,195C 198.026,193.271 197.026,192.105 195.5,191.5C 196.704,189.46 198.371,187.794 200.5,186.5C 201.498,188.49 202.498,190.49 203.5,192.5C 202.388,193.265 201.721,194.265 201.5,195.5 Z"/></g>
<g><path style="opacity:1" fill="#e0c866" d="M 185.5,207.5 C 187.34,209.168 189.34,210.668 191.5,212C 196.833,212.667 202.167,212.667 207.5,212C 209.078,210.906 210.745,210.072 212.5,209.5C 210.191,211.987 207.524,213.987 204.5,215.5C 204.167,215.5 203.833,215.5 203.5,215.5C 198.109,216.133 193.109,215.133 188.5,212.5C 187.833,212.5 187.5,212.167 187.5,211.5C 186.4,210.395 185.733,209.062 185.5,207.5 Z"/></g>
<g><path style="opacity:1" fill="#506f43" d="M 289.5,202.5 C 291.463,201.316 293.463,200.483 295.5,200C 293.627,201.704 291.96,203.537 290.5,205.5C 286.584,210.996 282.918,216.663 279.5,222.5C 279.678,221.305 280.011,220.138 280.5,219C 279.491,218.645 278.824,217.812 278.5,216.5C 279.459,195.279 278.459,195.279 275.5,216.5C 275.326,218.861 274.993,221.194 274.5,223.5C 274.167,223.5 273.833,223.5 273.5,223.5C 274.107,213.081 276.274,203.081 280,193.5C 281.185,191.441 282.352,191.274 283.5,193C 280.606,199.216 279.939,205.716 281.5,212.5C 284.737,209.568 287.403,206.235 289.5,202.5 Z"/></g>
<g><path style="opacity:1" fill="#565232" d="M 278.5,216.5 C 277.778,216.082 277.278,215.416 277,214.5C 276.722,215.416 276.222,216.082 275.5,216.5C 278.459,195.279 279.459,195.279 278.5,216.5 Z"/></g>
<g><path style="opacity:1" fill="#ecfaee" d="M 173.5,212.5 C 173.38,218.074 174.713,223.241 177.5,228C 174.394,226.935 171.727,224.935 169.5,222C 163.113,217.667 156.78,217.5 150.5,221.5C 146.292,223.368 142.625,226.035 139.5,229.5C 139.351,228.448 139.517,227.448 140,226.5C 146.856,218.828 155.356,215.828 165.5,217.5C 167.325,216.349 169.325,215.682 171.5,215.5C 171.285,213.821 171.952,212.821 173.5,212.5 Z"/></g>
<g><path style="opacity:1" fill="#529062" d="M 368.5,197.5 C 368.5,198.833 368.5,200.167 368.5,201.5C 365.736,209.033 362.402,216.366 358.5,223.5C 353.955,229.954 348.289,235.288 341.5,239.5C 341.351,238.448 341.517,237.448 342,236.5C 345.751,232.887 349.751,229.553 354,226.5C 354.969,222.713 356.969,219.713 360,217.5C 361.865,213.313 363.198,208.979 364,204.5C 366.036,202.408 367.536,200.074 368.5,197.5 Z"/></g>
<g><path style="opacity:1" fill="#6a432c" d="M 278.5,216.5 C 278.824,217.812 279.491,218.645 280.5,219C 280.011,220.138 279.678,221.305 279.5,222.5C 279.5,222.833 279.5,223.167 279.5,223.5C 277.896,224.287 277.229,225.62 277.5,227.5C 276.85,227.804 276.183,228.137 275.5,228.5C 274.548,226.955 274.215,225.288 274.5,223.5C 274.993,221.194 275.326,218.861 275.5,216.5C 276.222,216.082 276.722,215.416 277,214.5C 277.278,215.416 277.778,216.082 278.5,216.5 Z"/></g>
<g><path style="opacity:1" fill="#4c8e5f" d="M 187.5,211.5 C 187.5,212.167 187.833,212.5 188.5,212.5C 188.719,213.675 188.386,214.675 187.5,215.5C 186.326,213.766 184.66,212.766 182.5,212.5C 180.182,212.997 177.848,213.33 175.5,213.5C 176.088,217.75 177.922,221.417 181,224.5C 181.755,227.303 181.422,229.97 180,232.5C 179.259,231.359 178.425,231.359 177.5,232.5C 174.314,228.48 170.647,224.98 166.5,222C 161.227,220.233 155.894,220.066 150.5,221.5C 156.78,217.5 163.113,217.667 169.5,222C 171.727,224.935 174.394,226.935 177.5,228C 174.713,223.241 173.38,218.074 173.5,212.5C 177.97,211.514 182.637,211.181 187.5,211.5 Z"/></g>
<g><path style="opacity:1" fill="#f9faf6" d="M 246.5,221.5 C 248.228,227.238 248.895,233.238 248.5,239.5C 248.5,239.833 248.5,240.167 248.5,240.5C 244.752,253.383 240.919,266.383 237,279.5C 236.501,284.489 236.334,289.489 236.5,294.5C 231.675,294.126 227.008,293.126 222.5,291.5C 224.444,287.277 226.111,282.944 227.5,278.5C 231.322,268.899 232.989,258.899 232.5,248.5C 232.259,246.114 232.925,244.114 234.5,242.5C 234.557,241.391 234.89,240.391 235.5,239.5C 237.766,235.966 239.766,232.3 241.5,228.5C 243.584,226.424 245.251,224.09 246.5,221.5 Z"/></g>
<g><path style="opacity:1" fill="#604f2e" d="M 273.5,223.5 C 273.833,223.5 274.167,223.5 274.5,223.5C 274.215,225.288 274.548,226.955 275.5,228.5C 276.183,228.137 276.85,227.804 277.5,227.5C 277.657,228.873 277.49,230.207 277,231.5C 276.124,233.758 274.957,235.758 273.5,237.5C 274.614,234.823 274.614,232.156 273.5,229.5C 272.817,229.863 272.15,230.196 271.5,230.5C 271.41,227.848 272.076,225.515 273.5,223.5 Z"/></g>
<g><path style="opacity:1" fill="#e1f3df" d="M 256.5,224.5 C 259.696,229.558 262.362,234.891 264.5,240.5C 263.833,240.5 263.167,240.5 262.5,240.5C 262.573,238.973 261.906,237.973 260.5,237.5C 260.008,235.181 259.008,233.181 257.5,231.5C 257.007,229.194 256.674,226.861 256.5,224.5 Z"/></g>
<g><path style="opacity:1" fill="#72412d" d="M 273.5,237.5 C 273.167,238.167 272.833,238.833 272.5,239.5C 270.716,240.893 268.716,241.393 266.5,241C 267.337,239.989 267.67,238.822 267.5,237.5C 268.569,235.031 269.902,232.698 271.5,230.5C 272.15,230.196 272.817,229.863 273.5,229.5C 274.614,232.156 274.614,234.823 273.5,237.5 Z"/></g>
<g><path style="opacity:1" fill="#418d52" d="M 188.5,212.5 C 193.109,215.133 198.109,216.133 203.5,215.5C 210.135,222.968 217.302,229.968 225,236.5C 227.775,240.396 230.275,244.396 232.5,248.5C 232.989,258.899 231.322,268.899 227.5,278.5C 225.947,281.24 224.114,283.907 222,286.5C 220.729,283.567 219.062,280.901 217,278.5C 215.108,279.617 214.275,281.284 214.5,283.5C 213.178,283.67 212.011,283.337 211,282.5C 209.111,279.89 207.611,277.057 206.5,274C 206.769,272.393 207.603,271.226 209,270.5C 209.499,265.511 209.666,260.511 209.5,255.5C 208.022,255.762 206.689,255.429 205.5,254.5C 207.439,252.878 207.772,251.044 206.5,249C 203.967,249.611 201.3,250.111 198.5,250.5C 198.629,252.216 198.962,253.883 199.5,255.5C 197.684,253.882 196.351,251.882 195.5,249.5C 196.833,249.5 198.167,249.5 199.5,249.5C 204.12,247.864 206.454,244.531 206.5,239.5C 204.561,231.04 199.561,228.04 191.5,230.5C 189.583,231.909 187.75,233.576 186,235.5C 185.204,238.039 185.371,240.372 186.5,242.5C 187.13,246.463 189.463,248.796 193.5,249.5C 195.579,253.328 197.412,257.328 199,261.5C 199.231,267.168 200.398,272.501 202.5,277.5C 201.129,278.787 199.295,279.453 197,279.5C 194.967,279.494 193.134,279.161 191.5,278.5C 193.273,267.99 189.273,260.99 179.5,257.5C 176.983,256.027 174.15,255.36 171,255.5C 169.167,255.667 167.333,255.833 165.5,256C 164.944,256.383 164.611,256.883 164.5,257.5C 161.811,258.189 160.144,259.856 159.5,262.5C 155.551,265.228 153.551,269.061 153.5,274C 154.348,278.045 155.681,281.879 157.5,285.5C 158.038,287.117 158.371,288.784 158.5,290.5C 162.159,291.819 165.826,293.152 169.5,294.5C 174.745,294.223 179.745,293.056 184.5,291C 186.464,289.549 187.797,287.716 188.5,285.5C 188.66,283.847 189.326,282.514 190.5,281.5C 195.228,283.438 200.228,284.938 205.5,286C 208.407,289.395 211.073,292.895 213.5,296.5C 206.934,302.621 199.267,306.954 190.5,309.5C 180.255,311.224 169.922,311.89 159.5,311.5C 158.5,311.5 157.5,311.5 156.5,311.5C 154.052,310.527 151.385,310.194 148.5,310.5C 149.41,304.385 150.577,298.385 152,292.5C 147.912,290.206 143.745,288.039 139.5,286C 138.743,284.488 137.743,283.154 136.5,282C 133.691,280.677 131.025,279.177 128.5,277.5C 125.998,275.83 123.998,273.664 122.5,271C 127.097,265.369 132.763,261.203 139.5,258.5C 140.626,257.192 140.626,255.858 139.5,254.5C 137.563,252.449 136.563,249.949 136.5,247C 138.145,242.484 138.978,237.984 139,233.5C 143.204,229.823 147.037,225.823 150.5,221.5C 155.894,220.066 161.227,220.233 166.5,222C 170.647,224.98 174.314,228.48 177.5,232.5C 178.425,231.359 179.259,231.359 180,232.5C 181.422,229.97 181.755,227.303 181,224.5C 177.922,221.417 176.088,217.75 175.5,213.5C 177.848,213.33 180.182,212.997 182.5,212.5C 184.66,212.766 186.326,213.766 187.5,215.5C 188.386,214.675 188.719,213.675 188.5,212.5 Z"/></g>
<g><path style="opacity:1" fill="#c8c25c" d="M 191.5,230.5 C 190.602,232.905 189.102,234.905 187,236.5C 186.505,238.473 186.338,240.473 186.5,242.5C 185.371,240.372 185.204,238.039 186,235.5C 187.75,233.576 189.583,231.909 191.5,230.5 Z"/></g>
<g><path style="opacity:1" fill="#f4c955" d="M 191.5,230.5 C 201.557,230.052 205.723,234.718 204,244.5C 202.293,246.037 200.793,247.704 199.5,249.5C 198.167,249.5 196.833,249.5 195.5,249.5C 194.833,249.5 194.167,249.5 193.5,249.5C 189.463,248.796 187.13,246.463 186.5,242.5C 186.338,240.473 186.505,238.473 187,236.5C 189.102,234.905 190.602,232.905 191.5,230.5 Z"/></g>
<g><path style="opacity:1" fill="#fdf3ba" d="M 194.5,234.5 C 195.5,234.5 196.5,234.5 197.5,234.5C 197.331,236.912 197.997,239.079 199.5,241C 198.852,242.44 198.519,243.94 198.5,245.5C 197.167,245.5 195.833,245.5 194.5,245.5C 195.418,241.878 195.418,238.212 194.5,234.5 Z"/></g>
<g><path style="opacity:1" fill="#b8b856" d="M 191.5,230.5 C 199.561,228.04 204.561,231.04 206.5,239.5C 206.454,244.531 204.12,247.864 199.5,249.5C 200.793,247.704 202.293,246.037 204,244.5C 205.723,234.718 201.557,230.052 191.5,230.5 Z"/></g>
<g><path style="opacity:1" fill="#609072" d="M 227.5,235.5 C 229.914,237.224 232.58,238.558 235.5,239.5C 234.89,240.391 234.557,241.391 234.5,242.5C 233.761,242.631 233.094,242.464 232.5,242C 230.946,239.713 229.279,237.546 227.5,235.5 Z"/></g>
<g><path style="opacity:1" fill="#4f8d5e" d="M 150.5,221.5 C 147.037,225.823 143.204,229.823 139,233.5C 138.978,237.984 138.145,242.484 136.5,247C 136.563,249.949 137.563,252.449 139.5,254.5C 133.917,251.076 132.084,246.076 134,239.5C 136.091,236.26 137.924,232.926 139.5,229.5C 142.625,226.035 146.292,223.368 150.5,221.5 Z"/></g>
<g><path style="opacity:1" fill="#5c794c" d="M 257.5,231.5 C 259.008,233.181 260.008,235.181 260.5,237.5C 259.883,237.389 259.383,237.056 259,236.5C 258.564,238.847 258.064,241.181 257.5,243.5C 257.747,244.713 258.414,245.38 259.5,245.5C 258.833,246.5 258.167,247.5 257.5,248.5C 256.235,247.486 255.569,245.986 255.5,244C 255.899,239.771 256.566,235.604 257.5,231.5 Z"/></g>
<g><path style="opacity:1" fill="#448e54" d="M 260.5,237.5 C 261.906,237.973 262.573,238.973 262.5,240.5C 261.752,242.332 260.752,243.999 259.5,245.5C 258.414,245.38 257.747,244.713 257.5,243.5C 258.064,241.181 258.564,238.847 259,236.5C 259.383,237.056 259.883,237.389 260.5,237.5 Z"/></g>
<g><path style="opacity:1" fill="#664c30" d="M 267.5,237.5 C 267.67,238.822 267.337,239.989 266.5,241C 268.716,241.393 270.716,240.893 272.5,239.5C 271.621,242.701 269.955,245.368 267.5,247.5C 267.23,242.691 265.563,241.858 262.5,245C 261.552,245.483 260.552,245.649 259.5,245.5C 260.752,243.999 261.752,242.332 262.5,240.5C 263.167,240.5 263.833,240.5 264.5,240.5C 265.272,239.306 266.272,238.306 267.5,237.5 Z"/></g>
<g><path style="opacity:1" fill="#e8faec" d="M 358.5,223.5 C 358.628,225.655 358.128,227.655 357,229.5C 352.376,232.294 348.209,235.627 344.5,239.5C 354.951,239.027 363.285,242.86 369.5,251C 368.944,251.383 368.611,251.883 368.5,252.5C 364.401,247.273 359.068,243.773 352.5,242C 346.409,241.544 340.409,241.878 334.5,243C 336.86,241.82 339.193,240.653 341.5,239.5C 348.289,235.288 353.955,229.954 358.5,223.5 Z"/></g>
<g><path style="opacity:1" fill="#e3f8e8" d="M 203.5,215.5 C 203.833,215.5 204.167,215.5 204.5,215.5C 212.394,221.941 220.061,228.607 227.5,235.5C 229.279,237.546 230.946,239.713 232.5,242C 233.094,242.464 233.761,242.631 234.5,242.5C 232.925,244.114 232.259,246.114 232.5,248.5C 230.275,244.396 227.775,240.396 225,236.5C 217.302,229.968 210.135,222.968 203.5,215.5 Z"/></g>
<g><path style="opacity:1" fill="#743f2b" d="M 257.5,248.5 C 258.167,247.5 258.833,246.5 259.5,245.5C 260.552,245.649 261.552,245.483 262.5,245C 265.563,241.858 267.23,242.691 267.5,247.5C 263.397,250.394 259.731,253.727 256.5,257.5C 254.857,257.52 253.524,256.853 252.5,255.5C 251.554,257.075 251.554,258.742 252.5,260.5C 252.547,262 251.881,263 250.5,263.5C 249.534,261.211 248.201,259.211 246.5,257.5C 248.126,251.95 248.792,246.284 248.5,240.5C 248.5,240.167 248.5,239.833 248.5,239.5C 249.703,231.603 249.37,223.603 247.5,215.5C 248.75,211.527 250.25,211.527 252,215.5C 252.147,218.11 252.981,220.444 254.5,222.5C 253.263,223.281 252.263,224.281 251.5,225.5C 252.792,227.667 253.625,230 254,232.5C 254.499,238.157 254.666,243.824 254.5,249.5C 255.791,249.737 256.791,249.404 257.5,248.5 Z"/></g>
<g><path style="opacity:1" fill="#cece66" d="M 179.5,257.5 C 174.5,256.167 169.5,256.167 164.5,257.5C 164.611,256.883 164.944,256.383 165.5,256C 167.333,255.833 169.167,255.667 171,255.5C 174.15,255.36 176.983,256.027 179.5,257.5 Z"/></g>
<g><path style="opacity:1" fill="#448853" d="M 227.5,278.5 C 226.111,282.944 224.444,287.277 222.5,291.5C 220.784,291.371 219.117,291.038 217.5,290.5C 212.017,286.684 208.017,281.684 205.5,275.5C 203.501,268.838 201.501,262.171 199.5,255.5C 198.962,253.883 198.629,252.216 198.5,250.5C 201.3,250.111 203.967,249.611 206.5,249C 207.772,251.044 207.439,252.878 205.5,254.5C 206.689,255.429 208.022,255.762 209.5,255.5C 209.666,260.511 209.499,265.511 209,270.5C 207.603,271.226 206.769,272.393 206.5,274C 207.611,277.057 209.111,279.89 211,282.5C 212.011,283.337 213.178,283.67 214.5,283.5C 214.275,281.284 215.108,279.617 217,278.5C 219.062,280.901 220.729,283.567 222,286.5C 224.114,283.907 225.947,281.24 227.5,278.5 Z"/></g>
<g><path style="opacity:1" fill="#555433" d="M 193.5,249.5 C 194.167,249.5 194.833,249.5 195.5,249.5C 196.351,251.882 197.684,253.882 199.5,255.5C 201.501,262.171 203.501,268.838 205.5,275.5C 202.956,272.693 201.956,273.36 202.5,277.5C 200.398,272.501 199.231,267.168 199,261.5C 197.412,257.328 195.579,253.328 193.5,249.5 Z"/></g>
<g><path style="opacity:1" fill="#f9c54d" d="M 179.5,257.5 C 188.011,263.225 191.011,271.225 188.5,281.5C 187.5,281.5 186.5,281.5 185.5,281.5C 185.5,283.167 185.5,284.833 185.5,286.5C 184.167,286.5 182.833,286.5 181.5,286.5C 181.191,289.346 179.525,290.846 176.5,291C 172.476,291.497 168.476,291.331 164.5,290.5C 161.796,290.33 160.129,288.997 159.5,286.5C 157.095,282.782 155.762,278.615 155.5,274C 155.565,271.409 156.065,268.909 157,266.5C 158.481,265.529 159.315,264.196 159.5,262.5C 160.144,259.856 161.811,258.189 164.5,257.5C 169.5,256.167 174.5,256.167 179.5,257.5 Z"/></g>
<g><path style="opacity:1" fill="#f9f9f6" d="M 255.5,260.5 C 259.192,271.562 263.192,282.562 267.5,293.5C 261.757,299.969 257.257,307.303 254,315.5C 253.31,316.738 252.81,316.738 252.5,315.5C 250.187,306.332 248.854,296.999 248.5,287.5C 248.201,277.744 250.535,268.744 255.5,260.5 Z"/></g>
<g><path style="opacity:1" fill="#468853" d="M 279.5,223.5 C 279.255,227.738 278.255,231.738 276.5,235.5C 276.608,236.442 276.941,237.275 277.5,238C 274.121,238.711 272.621,240.878 273,244.5C 270.518,245.624 270.018,247.29 271.5,249.5C 271.167,249.833 270.833,250.167 270.5,250.5C 269.191,248.109 268.191,248.109 267.5,250.5C 267.841,253.187 269.174,255.187 271.5,256.5C 268.57,260.521 267.237,260.188 267.5,255.5C 266.178,255.33 265.011,255.663 264,256.5C 263.474,259.911 262.641,263.245 261.5,266.5C 265.707,270.929 267.707,276.263 267.5,282.5C 269.512,281.986 271.512,281.82 273.5,282C 274.38,283.356 274.714,284.856 274.5,286.5C 275.5,286.5 276.5,286.5 277.5,286.5C 275.5,288.167 273.5,289.833 271.5,291.5C 269.938,291.733 268.605,292.4 267.5,293.5C 263.192,282.562 259.192,271.562 255.5,260.5C 256.11,259.609 256.443,258.609 256.5,257.5C 259.731,253.727 263.397,250.394 267.5,247.5C 269.955,245.368 271.621,242.701 272.5,239.5C 272.833,238.833 273.167,238.167 273.5,237.5C 274.957,235.758 276.124,233.758 277,231.5C 277.49,230.207 277.657,228.873 277.5,227.5C 277.229,225.62 277.896,224.287 279.5,223.5 Z"/></g>
<g><path style="opacity:1" fill="#f6de90" d="M 175.5,273.5 C 173.203,272.261 172.87,270.428 174.5,268C 174.361,266.699 173.695,265.866 172.5,265.5C 172.369,264.624 172.702,263.957 173.5,263.5C 174.671,265.169 176.004,266.669 177.5,268C 176.144,269.567 175.477,271.4 175.5,273.5 Z"/></g>
<g><path style="opacity:1" fill="#f3d782" d="M 168.5,267.5 C 167.828,270.908 168.828,273.575 171.5,275.5C 172.429,276.689 172.762,278.022 172.5,279.5C 170.821,279.285 169.821,279.952 169.5,281.5C 170.037,277.963 169.37,274.463 167.5,271C 167.514,269.615 167.848,268.449 168.5,267.5 Z"/></g>
<g><path style="opacity:1" fill="#fdf8dc" d="M 172.5,265.5 C 173.695,265.866 174.361,266.699 174.5,268C 172.87,270.428 173.203,272.261 175.5,273.5C 177.719,279.285 175.719,281.951 169.5,281.5C 169.821,279.952 170.821,279.285 172.5,279.5C 172.762,278.022 172.429,276.689 171.5,275.5C 168.828,273.575 167.828,270.908 168.5,267.5C 169.605,266.4 170.938,265.733 172.5,265.5 Z"/></g>
<g><path style="opacity:1" fill="#d6cc60" d="M 346.5,271.5 C 352.672,277.27 354.005,283.936 350.5,291.5C 350.877,284.414 349.544,277.747 346.5,271.5 Z"/></g>
<g><path style="opacity:1" fill="#d3c566" d="M 159.5,262.5 C 159.315,264.196 158.481,265.529 157,266.5C 156.065,268.909 155.565,271.409 155.5,274C 155.762,278.615 157.095,282.782 159.5,286.5C 158.833,286.167 158.167,285.833 157.5,285.5C 155.681,281.879 154.348,278.045 153.5,274C 153.551,269.061 155.551,265.228 159.5,262.5 Z"/></g>
<g><path style="opacity:1" fill="#e7cc60" d="M 179.5,257.5 C 189.273,260.99 193.273,267.99 191.5,278.5C 190.596,279.209 190.263,280.209 190.5,281.5C 189.326,282.514 188.66,283.847 188.5,285.5C 181.586,292.639 173.586,294.305 164.5,290.5C 168.476,291.331 172.476,291.497 176.5,291C 179.525,290.846 181.191,289.346 181.5,286.5C 182.833,286.5 184.167,286.5 185.5,286.5C 185.5,284.833 185.5,283.167 185.5,281.5C 186.5,281.5 187.5,281.5 188.5,281.5C 191.011,271.225 188.011,263.225 179.5,257.5 Z"/></g>
<g><path style="opacity:1" fill="#66472b" d="M 307.5,285.5 C 310.167,285.5 312.833,285.5 315.5,285.5C 315.5,286.167 315.833,286.5 316.5,286.5C 317.398,287.158 318.398,287.824 319.5,288.5C 319.376,289.107 319.043,289.44 318.5,289.5C 317.833,289.5 317.167,289.5 316.5,289.5C 313.545,288.841 310.545,288.508 307.5,288.5C 304.024,287.357 300.358,287.19 296.5,288C 290.447,288.786 284.78,290.619 279.5,293.5C 279.48,291.857 280.147,290.524 281.5,289.5C 285.122,288.675 288.789,288.175 292.5,288C 293.902,286.658 293.569,285.824 291.5,285.5C 287.529,286.197 283.529,286.697 279.5,287C 277.587,289.791 274.921,291.291 271.5,291.5C 273.5,289.833 275.5,288.167 277.5,286.5C 278.708,285.766 280.041,285.433 281.5,285.5C 290.147,284.231 298.814,284.231 307.5,285.5 Z"/></g>
<g><path style="opacity:1" fill="#68462d" d="M 205.5,275.5 C 208.017,281.684 212.017,286.684 217.5,290.5C 215.692,290.491 214.025,290.991 212.5,292C 214.141,293.129 215.141,294.629 215.5,296.5C 214.833,296.5 214.167,296.5 213.5,296.5C 211.073,292.895 208.407,289.395 205.5,286C 200.228,284.938 195.228,283.438 190.5,281.5C 190.263,280.209 190.596,279.209 191.5,278.5C 193.134,279.161 194.967,279.494 197,279.5C 199.295,279.453 201.129,278.787 202.5,277.5C 201.956,273.36 202.956,272.693 205.5,275.5 Z"/></g>
<g><path style="opacity:1" fill="#547646" d="M 307.5,288.5 C 297.82,289.256 288.487,291.256 279.5,294.5C 279.5,294.167 279.5,293.833 279.5,293.5C 284.78,290.619 290.447,288.786 296.5,288C 300.358,287.19 304.024,287.357 307.5,288.5 Z"/></g>
<g><path style="opacity:1" fill="#5b8940" d="M 157.5,285.5 C 158.167,285.833 158.833,286.167 159.5,286.5C 160.129,288.997 161.796,290.33 164.5,290.5C 173.586,294.305 181.586,292.639 188.5,285.5C 187.797,287.716 186.464,289.549 184.5,291C 179.745,293.056 174.745,294.223 169.5,294.5C 165.826,293.152 162.159,291.819 158.5,290.5C 158.371,288.784 158.038,287.117 157.5,285.5 Z"/></g>
<g><path style="opacity:1" fill="#734130" d="M 248.5,240.5 C 248.792,246.284 248.126,251.95 246.5,257.5C 248.201,259.211 249.534,261.211 250.5,263.5C 251.881,263 252.547,262 252.5,260.5C 251.554,258.742 251.554,257.075 252.5,255.5C 253.524,256.853 254.857,257.52 256.5,257.5C 256.443,258.609 256.11,259.609 255.5,260.5C 250.535,268.744 248.201,277.744 248.5,287.5C 248.854,296.999 250.187,306.332 252.5,315.5C 251.542,315.047 250.708,314.381 250,313.5C 248.119,305.622 246.785,297.622 246,289.5C 245.818,292.226 245.318,294.893 244.5,297.5C 243.167,294.167 243.167,290.833 244.5,287.5C 245.086,287.709 245.586,288.043 246,288.5C 246.425,280.952 247.592,273.619 249.5,266.5C 248.5,266.5 247.5,266.5 246.5,266.5C 246.657,267.873 246.49,269.207 246,270.5C 245.907,267.993 245.074,265.826 243.5,264C 244.696,263.346 244.696,262.846 243.5,262.5C 243.167,263.333 242.833,264.167 242.5,265C 241.406,278.086 241.406,291.253 242.5,304.5C 241.579,306.756 239.912,307.756 237.5,307.5C 237.5,305.5 237.5,303.5 237.5,301.5C 235.076,301.192 232.743,301.526 230.5,302.5C 233.062,304.424 235.062,306.758 236.5,309.5C 229.668,304.916 222.668,300.583 215.5,296.5C 215.141,294.629 214.141,293.129 212.5,292C 214.025,290.991 215.692,290.491 217.5,290.5C 219.117,291.038 220.784,291.371 222.5,291.5C 227.008,293.126 231.675,294.126 236.5,294.5C 236.334,289.489 236.501,284.489 237,279.5C 240.919,266.383 244.752,253.383 248.5,240.5 Z"/></g>
<g><path style="opacity:1" fill="#f9c652" d="M 345.5,271.5 C 345.833,271.5 346.167,271.5 346.5,271.5C 349.544,277.747 350.877,284.414 350.5,291.5C 348.851,292.649 347.351,293.982 346,295.5C 345.055,295.095 344.388,294.428 344,293.5C 342.796,294.859 341.296,295.859 339.5,296.5C 340.167,297.167 340.833,297.833 341.5,298.5C 334.345,300.03 327.679,298.863 321.5,295C 319.826,293.494 318.826,291.661 318.5,289.5C 319.043,289.44 319.376,289.107 319.5,288.5C 318.398,287.824 317.398,287.158 316.5,286.5C 317.653,282.889 318.653,279.223 319.5,275.5C 320.5,272.5 322.5,270.5 325.5,269.5C 332.433,267.752 339.1,268.419 345.5,271.5 Z"/></g>
<g><path style="opacity:1" fill="#fcf3cc" d="M 330.5,277.5 C 332.5,277.5 334.5,277.5 336.5,277.5C 336.374,279.2 335.707,280.7 334.5,282C 335.27,283.775 336.437,285.275 338,286.5C 338.667,288.167 338.667,289.833 338,291.5C 335.964,292.102 334.13,293.102 332.5,294.5C 331.124,293.158 329.791,291.825 328.5,290.5C 329.689,289.571 331.022,289.238 332.5,289.5C 331.637,286.626 330.303,283.959 328.5,281.5C 328.752,279.927 329.418,278.594 330.5,277.5 Z"/></g>
<g><path style="opacity:1" fill="#548c61" d="M 128.5,277.5 C 131.025,279.177 133.691,280.677 136.5,282C 137.743,283.154 138.743,284.488 139.5,286C 143.745,288.039 147.912,290.206 152,292.5C 150.577,298.385 149.41,304.385 148.5,310.5C 151.385,310.194 154.052,310.527 156.5,311.5C 153.167,311.5 149.833,311.5 146.5,311.5C 146.756,305.401 148.422,299.735 151.5,294.5C 142.519,290.52 134.852,284.853 128.5,277.5 Z"/></g>
<g><path style="opacity:1" fill="#3f8d52" d="M 311.5,128.5 C 312.338,128.842 312.672,129.508 312.5,130.5C 313.831,138.59 314.831,146.59 315.5,154.5C 315.435,154.938 315.601,155.272 316,155.5C 319.023,153.302 321.856,150.969 324.5,148.5C 331.231,147.574 337.231,149.408 342.5,154C 350.427,164.765 350.427,175.599 342.5,186.5C 343.492,188.026 344.992,188.693 347,188.5C 349.657,188.094 352.324,187.76 355,187.5C 359.455,188.485 363.955,189.152 368.5,189.5C 368.5,192.167 368.5,194.833 368.5,197.5C 367.536,200.074 366.036,202.408 364,204.5C 363.198,208.979 361.865,213.313 360,217.5C 356.969,219.713 354.969,222.713 354,226.5C 349.751,229.553 345.751,232.887 342,236.5C 341.517,237.448 341.351,238.448 341.5,239.5C 339.193,240.653 336.86,241.82 334.5,243C 340.409,241.878 346.409,241.544 352.5,242C 359.068,243.773 364.401,247.273 368.5,252.5C 370.975,255.785 372.642,259.452 373.5,263.5C 374.599,278.141 374.766,292.808 374,307.5C 371.37,307.859 369.203,308.859 367.5,310.5C 363.336,313.334 358.669,315.001 353.5,315.5C 343.959,317.407 334.293,317.907 324.5,317C 319.533,315.786 314.866,313.786 310.5,311C 306.234,310.825 302.234,309.825 298.5,308C 296.824,306.823 295.491,305.323 294.5,303.5C 292.604,302.534 290.604,302.201 288.5,302.5C 285.719,301.554 283.719,299.721 282.5,297C 281.255,296.209 279.922,295.709 278.5,295.5C 278.5,294.833 278.833,294.5 279.5,294.5C 288.487,291.256 297.82,289.256 307.5,288.5C 310.545,288.508 313.545,288.841 316.5,289.5C 321.181,301.906 329.848,305.739 342.5,301C 344.565,299.021 346.732,297.188 349,295.5C 349.791,294.255 350.291,292.922 350.5,291.5C 354.005,283.936 352.672,277.27 346.5,271.5C 346.167,271.5 345.833,271.5 345.5,271.5C 343.066,270.015 340.733,268.348 338.5,266.5C 336.811,265.696 335.145,264.696 333.5,263.5C 328.577,265.798 323.577,267.798 318.5,269.5C 318.817,265.298 318.483,261.298 317.5,257.5C 316.833,256.833 316.167,256.167 315.5,255.5C 315.443,254.391 315.11,253.391 314.5,252.5C 313.817,249.483 311.984,247.483 309,246.5C 309.077,245.262 308.911,244.262 308.5,243.5C 302.427,244.062 296.427,245.062 290.5,246.5C 289.833,246.167 289.167,245.833 288.5,245.5C 288.094,246.557 288.094,247.891 288.5,249.5C 285.886,249.277 284.219,250.444 283.5,253C 281.438,253.564 279.605,253.064 278,251.5C 276.72,251.613 275.887,252.28 275.5,253.5C 275.838,260.15 276.171,266.817 276.5,273.5C 278.549,276.025 279.882,275.525 280.5,272C 279.057,269.922 279.724,269.089 282.5,269.5C 282.073,272.788 282.74,275.788 284.5,278.5C 282.962,280.243 281.962,282.243 281.5,284.5C 281.5,284.833 281.5,285.167 281.5,285.5C 280.041,285.433 278.708,285.766 277.5,286.5C 276.5,286.5 275.5,286.5 274.5,286.5C 274.714,284.856 274.38,283.356 273.5,282C 271.512,281.82 269.512,281.986 267.5,282.5C 267.707,276.263 265.707,270.929 261.5,266.5C 262.641,263.245 263.474,259.911 264,256.5C 265.011,255.663 266.178,255.33 267.5,255.5C 267.237,260.188 268.57,260.521 271.5,256.5C 269.174,255.187 267.841,253.187 267.5,250.5C 268.191,248.109 269.191,248.109 270.5,250.5C 270.833,250.167 271.167,249.833 271.5,249.5C 270.018,247.29 270.518,245.624 273,244.5C 272.621,240.878 274.121,238.711 277.5,238C 276.941,237.275 276.608,236.442 276.5,235.5C 278.255,231.738 279.255,227.738 279.5,223.5C 279.5,223.167 279.5,222.833 279.5,222.5C 282.918,216.663 286.584,210.996 290.5,205.5C 294.412,204.256 296.412,201.589 296.5,197.5C 296.614,194.15 296.947,190.817 297.5,187.5C 297.635,185.192 296.969,183.192 295.5,181.5C 296.383,180.452 297.05,179.285 297.5,178C 296.616,176.902 295.616,176.402 294.5,176.5C 295.309,174.929 295.643,173.262 295.5,171.5C 292.833,171.5 290.167,171.5 287.5,171.5C 287.649,172.552 287.483,173.552 287,174.5C 285.131,169.682 284.131,164.682 284,159.5C 282.644,160.38 281.144,160.714 279.5,160.5C 279.665,163.85 279.498,167.183 279,170.5C 277.466,166.567 277.633,162.567 279.5,158.5C 278.995,157.081 277.995,156.415 276.5,156.5C 276.282,152.776 277.948,149.61 281.5,147C 281.335,145.883 281.002,144.716 280.5,143.5C 280.938,142.494 281.604,142.494 282.5,143.5C 283.23,141.659 283.897,139.825 284.5,138C 290.843,134.983 297.176,131.983 303.5,129C 306.164,127.487 308.83,127.32 311.5,128.5 Z"/></g>
<g><path style="opacity:1" fill="#f0ce5e" d="M 316.5,289.5 C 317.167,289.5 317.833,289.5 318.5,289.5C 318.826,291.661 319.826,293.494 321.5,295C 327.679,298.863 334.345,300.03 341.5,298.5C 340.833,297.833 340.167,297.167 339.5,296.5C 341.296,295.859 342.796,294.859 344,293.5C 344.388,294.428 345.055,295.095 346,295.5C 347.351,293.982 348.851,292.649 350.5,291.5C 350.291,292.922 349.791,294.255 349,295.5C 346.732,297.188 344.565,299.021 342.5,301C 329.848,305.739 321.181,301.906 316.5,289.5 Z"/></g>
<g><path style="opacity:1" fill="#58502c" d="M 307.5,285.5 C 298.814,284.231 290.147,284.231 281.5,285.5C 281.5,285.167 281.5,284.833 281.5,284.5C 282.458,284.047 283.292,283.381 284,282.5C 291.421,283.316 298.921,283.816 306.5,284C 307.056,284.383 307.389,284.883 307.5,285.5 Z"/></g>
<g><path style="opacity:1" fill="#d3cd60" d="M 319.5,275.5 C 318.653,279.223 317.653,282.889 316.5,286.5C 315.833,286.5 315.5,286.167 315.5,285.5C 315.486,281.525 316.819,278.192 319.5,275.5 Z"/></g>
<g><path style="opacity:1" fill="#e8cc5e" d="M 315.5,255.5 C 316.167,256.167 316.833,256.833 317.5,257.5C 319.502,274.326 312.169,282.16 295.5,281C 293.934,280.392 292.6,279.558 291.5,278.5C 296.472,279.422 301.472,279.588 306.5,279C 307.063,276.094 308.396,273.594 310.5,271.5C 311.736,272.246 313.07,272.579 314.5,272.5C 315.154,269.506 315.821,266.506 316.5,263.5C 316.163,260.824 315.83,258.157 315.5,255.5 Z"/></g>
<g><path style="opacity:1" fill="#d8d065" d="M 338.5,266.5 C 340.733,268.348 343.066,270.015 345.5,271.5C 339.1,268.419 332.433,267.752 325.5,269.5C 329.31,266.839 333.644,265.839 338.5,266.5 Z"/></g>
<g><path style="opacity:1" fill="#f9c64f" d="M 293.5,247.5 C 297.514,247.334 301.514,247.501 305.5,248C 309.276,249.947 312.61,252.447 315.5,255.5C 315.83,258.157 316.163,260.824 316.5,263.5C 315.821,266.506 315.154,269.506 314.5,272.5C 313.07,272.579 311.736,272.246 310.5,271.5C 308.396,273.594 307.063,276.094 306.5,279C 301.472,279.588 296.472,279.422 291.5,278.5C 287.815,275.117 285.149,271.117 283.5,266.5C 283.5,264.167 283.5,261.833 283.5,259.5C 286.43,255.231 289.763,251.231 293.5,247.5 Z"/></g>
<g><path style="opacity:1" fill="#fdf7d3" d="M 302.5,270.5 C 300.037,272.112 298.037,271.612 296.5,269C 299.837,267.422 300.171,265.588 297.5,263.5C 296.013,260.788 296.679,258.621 299.5,257C 303.638,256.609 304.304,257.942 301.5,261C 302.756,262.479 303.756,264.145 304.5,266C 304.475,267.876 303.809,269.376 302.5,270.5 Z"/></g>
<g><path style="opacity:1" fill="#4c8d4a" d="M 314.5,252.5 C 311.883,249.853 308.883,247.686 305.5,246C 301.194,245.088 297.194,245.588 293.5,247.5C 288.292,250.032 284.959,254.032 283.5,259.5C 283.5,261.833 283.5,264.167 283.5,266.5C 283.673,272.182 286.339,276.182 291.5,278.5C 292.6,279.558 293.934,280.392 295.5,281C 312.169,282.16 319.502,274.326 317.5,257.5C 318.483,261.298 318.817,265.298 318.5,269.5C 323.577,267.798 328.577,265.798 333.5,263.5C 335.145,264.696 336.811,265.696 338.5,266.5C 333.644,265.839 329.31,266.839 325.5,269.5C 322.5,270.5 320.5,272.5 319.5,275.5C 316.819,278.192 315.486,281.525 315.5,285.5C 312.833,285.5 310.167,285.5 307.5,285.5C 307.389,284.883 307.056,284.383 306.5,284C 298.921,283.816 291.421,283.316 284,282.5C 283.292,283.381 282.458,284.047 281.5,284.5C 281.962,282.243 282.962,280.243 284.5,278.5C 282.74,275.788 282.073,272.788 282.5,269.5C 279.724,269.089 279.057,269.922 280.5,272C 279.882,275.525 278.549,276.025 276.5,273.5C 276.171,266.817 275.838,260.15 275.5,253.5C 275.887,252.28 276.72,251.613 278,251.5C 279.605,253.064 281.438,253.564 283.5,253C 284.219,250.444 285.886,249.277 288.5,249.5C 288.094,247.891 288.094,246.557 288.5,245.5C 289.167,245.833 289.833,246.167 290.5,246.5C 296.427,245.062 302.427,244.062 308.5,243.5C 308.911,244.262 309.077,245.262 309,246.5C 311.984,247.483 313.817,249.483 314.5,252.5 Z"/></g>
<g><path style="opacity:1" fill="#f4d16e" d="M 297.5,263.5 C 300.171,265.588 299.837,267.422 296.5,269C 298.037,271.612 300.037,272.112 302.5,270.5C 301.311,273.847 299.145,274.847 296,273.5C 295.833,272.333 295.667,271.167 295.5,270C 296.091,267.761 296.758,265.594 297.5,263.5 Z"/></g>
<g><path style="opacity:1" fill="#d8cc69" d="M 283.5,266.5 C 285.149,271.117 287.815,275.117 291.5,278.5C 286.339,276.182 283.673,272.182 283.5,266.5 Z"/></g>
<g><path style="opacity:1" fill="#d6cf64" d="M 293.5,247.5 C 289.763,251.231 286.43,255.231 283.5,259.5C 284.959,254.032 288.292,250.032 293.5,247.5 Z"/></g>
<g><path style="opacity:1" fill="#d5cd6a" d="M 314.5,252.5 C 315.11,253.391 315.443,254.391 315.5,255.5C 312.61,252.447 309.276,249.947 305.5,248C 301.514,247.501 297.514,247.334 293.5,247.5C 297.194,245.588 301.194,245.088 305.5,246C 308.883,247.686 311.883,249.853 314.5,252.5 Z"/></g>
<g><path style="opacity:1" fill="#4f8b4a" d="M 334.5,193.5 C 335.117,193.611 335.617,193.944 336,194.5C 336.167,195.833 336.333,197.167 336.5,198.5C 335.361,202.051 334.361,205.717 333.5,209.5C 334.037,210.741 334.704,211.908 335.5,213C 335.355,213.772 335.022,214.439 334.5,215C 326.634,215.569 318.968,217.069 311.5,219.5C 312.506,220.396 312.506,221.062 311.5,221.5C 310.3,220.469 308.966,219.635 307.5,219C 307.833,218.667 308.167,218.333 308.5,218C 306.937,217.241 305.937,216.074 305.5,214.5C 324.168,219.824 333.835,212.824 334.5,193.5 Z"/></g>
<g><path style="opacity:1" fill="#ddcd65" d="M 332.5,190.5 C 333.167,191.5 333.833,192.5 334.5,193.5C 333.835,212.824 324.168,219.824 305.5,214.5C 295.66,204.93 294.993,194.764 303.5,184C 315.469,176.611 325.135,178.778 332.5,190.5 Z"/></g>
<g><path style="opacity:1" fill="#f9c64d" d="M 332.5,190.5 C 333.161,196.173 332.328,201.506 330,206.5C 329.667,206.167 329.333,205.833 329,205.5C 327.891,209.252 325.725,212.085 322.5,214C 309.449,216.642 301.449,211.475 298.5,198.5C 299.657,189.501 304.657,183.668 313.5,181C 317.049,180.542 320.382,181.208 323.5,183C 326.69,185.364 329.69,187.864 332.5,190.5 Z"/></g>
<g><path style="opacity:1" fill="#fcf7cd" d="M 313.5,189.5 C 316.463,189.151 318.796,190.151 320.5,192.5C 319.675,193.386 318.675,193.719 317.5,193.5C 318.005,196.343 319.005,199.01 320.5,201.5C 318.519,208.202 315.519,208.868 311.5,203.5C 312.689,202.571 314.022,202.238 315.5,202.5C 314.411,199.57 313.077,196.736 311.5,194C 311.519,192.167 312.185,190.667 313.5,189.5 Z"/></g>
<g><path style="opacity:1" fill="#558d63" d="M 373.5,263.5 C 374.887,265.877 375.721,268.543 376,271.5C 375.954,283.024 376.12,294.524 376.5,306C 376.167,306.833 375.833,307.667 375.5,308.5C 372.904,309.482 370.238,310.149 367.5,310.5C 369.203,308.859 371.37,307.859 374,307.5C 374.766,292.808 374.599,278.141 373.5,263.5 Z"/></g>
<g><path style="opacity:1" fill="#5e8e6a" d="M 190.5,309.5 C 188.438,310.776 186.104,311.61 183.5,312C 175.323,312.823 167.323,312.656 159.5,311.5C 169.922,311.89 180.255,311.224 190.5,309.5 Z"/></g>
<g><path style="opacity:1" fill="#76402e" d="M 252.5,315.5 C 252.81,316.738 253.31,316.738 254,315.5C 257.257,307.303 261.757,299.969 267.5,293.5C 268.605,292.4 269.938,291.733 271.5,291.5C 274.921,291.291 277.587,289.791 279.5,287C 283.529,286.697 287.529,286.197 291.5,285.5C 293.569,285.824 293.902,286.658 292.5,288C 288.789,288.175 285.122,288.675 281.5,289.5C 280.147,290.524 279.48,291.857 279.5,293.5C 279.5,293.833 279.5,294.167 279.5,294.5C 278.833,294.5 278.5,294.833 278.5,295.5C 267.876,304.737 261.376,316.404 259,330.5C 258.175,340.675 258.342,350.675 259.5,360.5C 259.5,360.833 259.5,361.167 259.5,361.5C 256.208,361.647 253.208,362.647 250.5,364.5C 247.167,364.167 243.833,363.833 240.5,363.5C 240.845,347.467 240.345,331.467 239,315.5C 238.427,313.359 237.594,311.359 236.5,309.5C 235.062,306.758 233.062,304.424 230.5,302.5C 232.743,301.526 235.076,301.192 237.5,301.5C 237.5,303.5 237.5,305.5 237.5,307.5C 239.912,307.756 241.579,306.756 242.5,304.5C 241.406,291.253 241.406,278.086 242.5,265C 242.833,264.167 243.167,263.333 243.5,262.5C 244.696,262.846 244.696,263.346 243.5,264C 245.074,265.826 245.907,267.993 246,270.5C 246.49,269.207 246.657,267.873 246.5,266.5C 247.5,266.5 248.5,266.5 249.5,266.5C 247.592,273.619 246.425,280.952 246,288.5C 245.586,288.043 245.086,287.709 244.5,287.5C 243.167,290.833 243.167,294.167 244.5,297.5C 245.318,294.893 245.818,292.226 246,289.5C 246.785,297.622 248.119,305.622 250,313.5C 250.708,314.381 251.542,315.047 252.5,315.5 Z"/></g>
<g><path style="opacity:1" fill="#4f8c5d" d="M 288.5,302.5 C 290.604,302.201 292.604,302.534 294.5,303.5C 295.491,305.323 296.824,306.823 298.5,308C 302.234,309.825 306.234,310.825 310.5,311C 314.866,313.786 319.533,315.786 324.5,317C 334.293,317.907 343.959,317.407 353.5,315.5C 329.643,322.687 307.977,318.354 288.5,302.5 Z"/></g>
<g><path style="opacity:1" fill="#e9cb76" d="M 259.5,360.5 C 260.167,360.5 260.833,360.5 261.5,360.5C 266.874,360.523 272.207,361.023 277.5,362C 278.942,362.377 279.942,363.21 280.5,364.5C 277.574,363.539 274.574,362.873 271.5,362.5C 271.784,364.415 271.451,366.081 270.5,367.5C 268.842,361.189 266.508,360.855 263.5,366.5C 263.5,365.167 263.5,363.833 263.5,362.5C 261.901,362.768 260.568,362.434 259.5,361.5C 259.5,361.167 259.5,360.833 259.5,360.5 Z"/></g>
<g><path style="opacity:1" fill="#fbcc54" d="M 259.5,361.5 C 260.568,362.434 261.901,362.768 263.5,362.5C 263.5,363.833 263.5,365.167 263.5,366.5C 264.014,368.439 265.347,369.439 267.5,369.5C 269.038,369.547 270.038,368.88 270.5,367.5C 271.451,366.081 271.784,364.415 271.5,362.5C 274.574,362.873 277.574,363.539 280.5,364.5C 281.167,364.5 281.833,364.5 282.5,364.5C 282.719,365.675 282.386,366.675 281.5,367.5C 277.886,368.821 274.22,369.821 270.5,370.5C 266.481,370.354 262.481,370.021 258.5,369.5C 255.72,368.805 253.053,367.805 250.5,366.5C 250.5,365.833 250.5,365.167 250.5,364.5C 253.208,362.647 256.208,361.647 259.5,361.5 Z"/></g>
<g><path style="opacity:1" fill="#fcf3c4" d="M 270.5,367.5 C 270.038,368.88 269.038,369.547 267.5,369.5C 265.347,369.439 264.014,368.439 263.5,366.5C 266.508,360.855 268.842,361.189 270.5,367.5 Z"/></g>
<g><path style="opacity:1" fill="#fef9e4" d="M 239.5,363.5 C 234.156,363.334 228.823,363.501 223.5,364C 220.334,364.322 217.667,365.489 215.5,367.5C 215.5,369.5 215.5,371.5 215.5,373.5C 213.574,374.486 211.574,375.486 209.5,376.5C 209.5,375.5 209.5,374.5 209.5,373.5C 210.833,373.5 212.167,373.5 213.5,373.5C 214.053,371.061 214.053,368.727 213.5,366.5C 216.037,364.733 218.703,363.233 221.5,362C 220.167,361.667 218.833,361.333 217.5,361C 219.556,360.689 221.556,360.189 223.5,359.5C 223.736,360.247 224.07,361.08 224.5,362C 229.684,362.174 234.684,362.674 239.5,363.5 Z"/></g>
<g><path style="opacity:1" fill="#ebc978" d="M 239.5,363.5 C 241.167,364.167 242.833,364.833 244.5,365.5C 241.833,365.5 239.167,365.5 236.5,365.5C 236.768,367.099 236.434,368.432 235.5,369.5C 235.5,370.167 235.5,370.833 235.5,371.5C 233.5,371.5 231.5,371.5 229.5,371.5C 229.5,369.167 229.5,366.833 229.5,364.5C 224.921,364.729 220.588,365.729 216.5,367.5C 216.167,367.5 215.833,367.5 215.5,367.5C 217.667,365.489 220.334,364.322 223.5,364C 228.823,363.501 234.156,363.334 239.5,363.5 Z"/></g>
<g><path style="opacity:1" fill="#fbcd58" d="M 229.5,371.5 C 226.09,371.543 222.757,371.043 219.5,370C 218.058,369.623 217.058,368.79 216.5,367.5C 220.588,365.729 224.921,364.729 229.5,364.5C 229.5,366.833 229.5,369.167 229.5,371.5 Z"/></g>
<g><path style="opacity:1" fill="#fbf1b8" d="M 235.5,369.5 C 231.584,371.263 229.917,369.929 230.5,365.5C 233.367,365.369 235.033,366.703 235.5,369.5 Z"/></g>
<g><path style="opacity:1" fill="#fcd35b" d="M 244.5,365.5 C 246.027,365.427 247.027,366.094 247.5,367.5C 246.571,368.315 245.571,369.148 244.5,370C 241.456,370.363 238.456,370.863 235.5,371.5C 235.5,370.833 235.5,370.167 235.5,369.5C 236.434,368.432 236.768,367.099 236.5,365.5C 239.167,365.5 241.833,365.5 244.5,365.5 Z"/></g>
<g><path style="opacity:1" fill="#e9a33a" d="M 215.5,367.5 C 215.833,367.5 216.167,367.5 216.5,367.5C 217.058,368.79 218.058,369.623 219.5,370C 222.757,371.043 226.09,371.543 229.5,371.5C 231.5,371.5 233.5,371.5 235.5,371.5C 238.456,370.863 241.456,370.363 244.5,370C 245.571,369.148 246.571,368.315 247.5,367.5C 249.311,370.938 248.478,373.605 245,375.5C 244.51,376.793 244.343,378.127 244.5,379.5C 236.189,380.499 227.856,380.665 219.5,380C 217.137,379.411 216.137,377.911 216.5,375.5C 225.167,378.116 233.834,378.116 242.5,375.5C 235.624,375.538 228.624,375.372 221.5,375C 219.564,374.187 217.564,373.687 215.5,373.5C 215.5,371.5 215.5,369.5 215.5,367.5 Z"/></g>
<g><path style="opacity:1" fill="#fdf9e5" d="M 261.5,360.5 C 267.533,360.034 273.7,359.701 280,359.5C 281.826,360.01 281.993,360.844 280.5,362C 281.759,362.923 283.092,363.757 284.5,364.5C 285.083,366.002 285.916,367.335 287,368.5C 288.049,367.483 289.216,367.316 290.5,368C 289.437,369.188 288.103,369.688 286.5,369.5C 285.781,374.123 287.781,376.79 292.5,377.5C 293.03,381.529 294.03,385.362 295.5,389C 294.76,391.943 293.76,392.109 292.5,389.5C 290.067,391.485 290.067,393.652 292.5,396C 289.753,397.604 286.753,398.438 283.5,398.5C 285.189,397.696 286.855,396.696 288.5,395.5C 289.273,391.536 290.273,387.702 291.5,384C 291.431,380.096 289.431,377.93 285.5,377.5C 285.5,376.833 285.5,376.167 285.5,375.5C 284.391,371.816 283.391,368.149 282.5,364.5C 281.833,364.5 281.167,364.5 280.5,364.5C 279.942,363.21 278.942,362.377 277.5,362C 272.207,361.023 266.874,360.523 261.5,360.5 Z"/></g>
<g><path style="opacity:1" fill="#eaa23a" d="M 282.5,364.5 C 283.391,368.149 284.391,371.816 285.5,375.5C 276.536,378.818 267.202,380.318 257.5,380C 262.796,381.066 268.129,381.899 273.5,382.5C 277.852,382.341 281.852,381.341 285.5,379.5C 291.153,381.611 291.819,384.778 287.5,389C 288.86,390.938 288.527,392.604 286.5,394C 276.633,396.161 266.633,396.994 256.5,396.5C 256.806,393.615 256.473,390.948 255.5,388.5C 255.5,387.167 255.5,385.833 255.5,384.5C 253.198,378.708 251.531,372.708 250.5,366.5C 253.053,367.805 255.72,368.805 258.5,369.5C 260.386,370.065 262.053,371.065 263.5,372.5C 260.494,373.748 257.494,373.748 254.5,372.5C 254.167,372.667 253.833,372.833 253.5,373C 254.328,373.915 255.328,374.581 256.5,375C 264.555,375.822 272.555,375.488 280.5,374C 281.706,372.982 281.373,372.482 279.5,372.5C 275.822,373.688 272.156,373.688 268.5,372.5C 269.243,371.818 269.909,371.151 270.5,370.5C 274.22,369.821 277.886,368.821 281.5,367.5C 282.386,366.675 282.719,365.675 282.5,364.5 Z"/></g>
<g><path style="opacity:1" fill="#f2b440" d="M 258.5,369.5 C 262.481,370.021 266.481,370.354 270.5,370.5C 269.909,371.151 269.243,371.818 268.5,372.5C 272.156,373.688 275.822,373.688 279.5,372.5C 281.373,372.482 281.706,372.982 280.5,374C 272.555,375.488 264.555,375.822 256.5,375C 255.328,374.581 254.328,373.915 253.5,373C 253.833,372.833 254.167,372.667 254.5,372.5C 257.494,373.748 260.494,373.748 263.5,372.5C 262.053,371.065 260.386,370.065 258.5,369.5 Z"/></g>
<g><path style="opacity:1" fill="#efb34a" d="M 215.5,373.5 C 217.564,373.687 219.564,374.187 221.5,375C 228.624,375.372 235.624,375.538 242.5,375.5C 233.834,378.116 225.167,378.116 216.5,375.5C 216.137,377.911 217.137,379.411 219.5,380C 227.856,380.665 236.189,380.499 244.5,379.5C 244.389,380.117 244.056,380.617 243.5,381C 233.504,382.956 223.504,382.956 213.5,381C 212.333,380.5 211.5,379.667 211,378.5C 210.51,379.793 210.343,381.127 210.5,382.5C 209.539,380.735 209.205,378.735 209.5,376.5C 211.574,375.486 213.574,374.486 215.5,373.5 Z"/></g>
<g><path style="opacity:1" fill="#fcc14b" d="M 285.5,375.5 C 285.5,376.167 285.5,376.833 285.5,377.5C 285.5,378.167 285.5,378.833 285.5,379.5C 281.852,381.341 277.852,382.341 273.5,382.5C 268.129,381.899 262.796,381.066 257.5,380C 267.202,380.318 276.536,378.818 285.5,375.5 Z"/></g>
<g><path style="opacity:1" fill="#fcc45b" d="M 255.5,384.5 C 255.917,383.876 256.584,383.543 257.5,383.5C 266.772,385.589 276.105,386.089 285.5,385C 275.46,387.044 265.46,386.877 255.5,384.5 Z"/></g>
<g><path style="opacity:1" fill="#7d441b" d="M 239.5,363.5 C 239.833,363.5 240.167,363.5 240.5,363.5C 243.833,363.833 247.167,364.167 250.5,364.5C 250.5,365.167 250.5,365.833 250.5,366.5C 251.531,372.708 253.198,378.708 255.5,384.5C 255.5,385.833 255.5,387.167 255.5,388.5C 255.5,391.167 255.5,393.833 255.5,396.5C 254.5,396.5 253.5,396.5 252.5,396.5C 252.946,393.99 252.28,391.99 250.5,390.5C 248.973,390.573 247.973,389.906 247.5,388.5C 246.64,385.368 245.64,382.368 244.5,379.5C 244.343,378.127 244.51,376.793 245,375.5C 248.478,373.605 249.311,370.938 247.5,367.5C 247.027,366.094 246.027,365.427 244.5,365.5C 242.833,364.833 241.167,364.167 239.5,363.5 Z"/></g>
<g><path style="opacity:1" fill="#743e2a" d="M 248.5,375.5 C 249.5,375.5 250.5,375.5 251.5,375.5C 252.118,381.006 252.951,386.339 254,391.5C 252.559,390.13 250.892,389.13 249,388.5C 248.573,385.551 247.739,382.717 246.5,380C 246.519,378.167 247.185,376.667 248.5,375.5 Z"/></g>
<g><path style="opacity:1" fill="#f9bd4b" d="M 247.5,388.5 C 247.973,389.906 248.973,390.573 250.5,390.5C 250.414,391.496 250.748,392.329 251.5,393C 241.905,397.611 231.905,398.611 221.5,396C 227.196,395.83 232.862,395.33 238.5,394.5C 232.319,392.893 225.653,391.726 218.5,391C 217.304,390.346 217.304,389.846 218.5,389.5C 223.979,391.043 229.312,390.71 234.5,388.5C 228.096,387.855 221.762,386.855 215.5,385.5C 216.167,385.167 216.833,384.833 217.5,384.5C 224.805,385.265 232.138,385.765 239.5,386C 238.5,386.833 237.5,387.667 236.5,388.5C 237.5,388.833 238.5,389.167 239.5,389.5C 242.14,388.905 244.807,388.572 247.5,388.5 Z"/></g>
<g><path style="opacity:1" fill="#e0a04c" d="M 285.5,377.5 C 289.431,377.93 291.431,380.096 291.5,384C 290.273,387.702 289.273,391.536 288.5,395.5C 286.855,396.696 285.189,397.696 283.5,398.5C 282.833,398.5 282.167,398.5 281.5,398.5C 274.862,399.498 268.195,399.665 261.5,399C 259.026,398.963 257.026,398.13 255.5,396.5C 255.5,393.833 255.5,391.167 255.5,388.5C 256.473,390.948 256.806,393.615 256.5,396.5C 266.633,396.994 276.633,396.161 286.5,394C 288.527,392.604 288.86,390.938 287.5,389C 291.819,384.778 291.153,381.611 285.5,379.5C 285.5,378.833 285.5,378.167 285.5,377.5 Z"/></g>
<g><path style="opacity:1" fill="#f7dfa9" d="M 215.5,389.5 C 216.768,391.905 217.435,394.572 217.5,397.5C 215.486,397.392 213.82,398.058 212.5,399.5C 212.167,399.5 211.833,399.5 211.5,399.5C 212.145,398.188 213.145,397.188 214.5,396.5C 215.474,394.257 215.808,391.924 215.5,389.5 Z"/></g>
<g><path style="opacity:1" fill="#e8a33a" d="M 244.5,379.5 C 245.64,382.368 246.64,385.368 247.5,388.5C 244.807,388.572 242.14,388.905 239.5,389.5C 238.5,389.167 237.5,388.833 236.5,388.5C 237.5,387.667 238.5,386.833 239.5,386C 232.138,385.765 224.805,385.265 217.5,384.5C 216.833,384.833 216.167,385.167 215.5,385.5C 221.762,386.855 228.096,387.855 234.5,388.5C 229.312,390.71 223.979,391.043 218.5,389.5C 217.304,389.846 217.304,390.346 218.5,391C 225.653,391.726 232.319,392.893 238.5,394.5C 232.862,395.33 227.196,395.83 221.5,396C 231.905,398.611 241.905,397.611 251.5,393C 250.748,392.329 250.414,391.496 250.5,390.5C 252.28,391.99 252.946,393.99 252.5,396.5C 250.925,398.114 250.259,400.114 250.5,402.5C 249.504,402.414 248.671,402.748 248,403.5C 246.997,407.957 244.163,409.624 239.5,408.5C 231.813,408.54 224.146,408.207 216.5,407.5C 216.5,406.5 216.5,405.5 216.5,404.5C 215.167,404.5 213.833,404.5 212.5,404.5C 212.5,402.833 212.5,401.167 212.5,399.5C 213.82,398.058 215.486,397.392 217.5,397.5C 217.435,394.572 216.768,391.905 215.5,389.5C 214.685,388.163 213.518,387.163 212,386.5C 211.59,385.099 211.09,383.766 210.5,382.5C 210.343,381.127 210.51,379.793 211,378.5C 211.5,379.667 212.333,380.5 213.5,381C 223.504,382.956 233.504,382.956 243.5,381C 244.056,380.617 244.389,380.117 244.5,379.5 Z"/></g>
<g><path style="opacity:1" fill="#fef4da" d="M 252.5,396.5 C 253.5,396.5 254.5,396.5 255.5,396.5C 257.026,398.13 259.026,398.963 261.5,399C 268.195,399.665 274.862,399.498 281.5,398.5C 278.062,399.823 274.229,400.49 270,400.5C 263.724,400.627 257.558,399.96 251.5,398.5C 251.768,400.099 251.434,401.432 250.5,402.5C 250.259,400.114 250.925,398.114 252.5,396.5 Z"/></g>
<g><path style="opacity:1" fill="#dca559" d="M 211.5,399.5 C 211.833,399.5 212.167,399.5 212.5,399.5C 212.5,401.167 212.5,402.833 212.5,404.5C 213.833,404.5 215.167,404.5 216.5,404.5C 216.5,405.5 216.5,406.5 216.5,407.5C 224.146,408.207 231.813,408.54 239.5,408.5C 231.648,409.715 223.648,409.715 215.5,408.5C 214.685,407.163 213.518,406.163 212,405.5C 211.505,403.527 211.338,401.527 211.5,399.5 Z"/></g>
<g><path style="opacity:1" fill="#fef3d4" d="M 250.5,402.5 C 250.405,407.095 248.071,409.595 243.5,410C 234.5,410.667 225.5,410.667 216.5,410C 215.944,409.617 215.611,409.117 215.5,408.5C 223.648,409.715 231.648,409.715 239.5,408.5C 244.163,409.624 246.997,407.957 248,403.5C 248.671,402.748 249.504,402.414 250.5,402.5 Z"/></g>
</svg>
